<?xml version="1.0" standalone="no"?>
<!DOCTYPE svg PUBLIC "-//W3C//DTD SVG 20010904//EN"
 "http://www.w3.org/TR/2001/REC-SVG-20010904/DTD/svg10.dtd">
<svg version="1.0" xmlns="http://www.w3.org/2000/svg"
 width="1995.000000pt" height="1995.000000pt" viewBox="0 0 1995.000000 1995.000000"
 preserveAspectRatio="xMidYMid meet">
<metadata>
Created by potrace 1.14, written by Peter Selinger 2001-2017
</metadata>
<g transform="translate(0.000000,1995.000000) scale(0.100000,-0.100000)"
fill="#000000" stroke="none">
<path d="M7862 15110 c-29 -4 -55 -10 -58 -12 -2 -3 38 -15 88 -27 349 -85
629 -266 731 -472 20 -41 37 -79 37 -83 0 -4 -32 22 -72 59 -220 204 -550 344
-814 345 -232 1 -421 -70 -812 -302 -292 -173 -382 -211 -544 -224 -43 -4 -78
-10 -78 -15 0 -14 64 -47 151 -77 130 -46 309 -83 438 -90 l116 -7 -82 -27
c-142 -48 -247 -62 -473 -62 -238 0 -395 17 -710 75 -468 86 -720 92 -934 21
-132 -43 -266 -147 -375 -290 -41 -53 -181 -283 -181 -296 0 -6 15 4 33 21 85
80 225 151 372 189 82 21 123 26 230 26 209 0 358 -40 625 -167 290 -139 507
-202 725 -213 l130 -6 -74 -17 c-299 -71 -653 -35 -1016 103 -186 71 -281 91
-445 92 -158 0 -261 -23 -357 -81 -137 -82 -248 -238 -287 -405 l-6 -28 138 0
c390 0 774 -109 1146 -325 127 -73 219 -108 333 -125 365 -56 869 169 1378
615 196 172 272 226 402 287 178 84 463 129 693 110 58 -5 107 -7 110 -5 9 8
-43 45 -97 70 -99 46 -181 57 -398 56 -149 0 -233 -6 -330 -21 -71 -11 -131
-19 -133 -17 -2 1 24 29 56 62 66 65 150 112 253 140 95 26 330 23 463 -6 55
-12 101 -19 104 -17 9 9 -68 104 -136 168 -37 35 -100 84 -140 108 -39 25 -71
48 -72 51 0 9 112 19 219 19 259 0 508 -79 698 -222 l78 -58 6 87 c6 92 16
127 50 175 44 61 153 90 263 69 33 -6 62 -9 64 -6 9 8 -102 165 -176 248 -214
243 -468 401 -772 479 -105 28 -132 31 -310 34 -107 1 -219 -1 -248 -6z"/>
<path d="M9409 14358 c-18 -34 -23 -150 -9 -220 10 -54 18 -69 57 -106 87 -84
118 -195 83 -302 -35 -110 -37 -194 -7 -292 26 -83 125 -290 212 -446 l47 -84
-68 50 c-168 121 -283 155 -300 89 -14 -58 48 -176 216 -412 253 -355 360
-534 379 -637 25 -135 144 -353 445 -813 198 -302 218 -343 224 -444 5 -96
-18 -183 -75 -280 -38 -65 -165 -203 -215 -235 -26 -17 -28 -17 -57 5 -32 24
-44 24 -205 -1 -80 -12 -137 -1 -161 33 -10 15 -15 45 -15 97 0 62 -5 86 -29
136 -34 72 -47 83 -376 333 -132 100 -274 209 -315 241 -90 72 -560 394 -662
454 -40 24 -108 62 -150 86 -68 38 -78 47 -78 72 0 38 -39 57 -136 65 -57 4
-81 11 -93 25 -18 21 -62 24 -94 6 -12 -7 -60 -15 -107 -18 -165 -11 -244 -84
-195 -180 14 -28 14 -33 -9 -78 -13 -26 -29 -66 -35 -88 -35 -128 -150 -211
-701 -504 -1089 -578 -1549 -843 -1594 -920 -26 -44 -24 -102 4 -142 31 -45
99 -96 162 -120 72 -28 243 -35 358 -15 47 8 243 42 435 76 916 161 1724 282
2077 311 201 16 312 -2 368 -62 27 -29 27 -98 -1 -154 -15 -32 -323 -333
-1196 -1171 -647 -620 -1199 -1148 -1227 -1173 l-50 -45 40 55 c22 30 243 332
491 670 247 338 496 678 552 755 142 192 171 254 149 316 -11 32 -109 114
-177 148 l-43 23 -32 -31 c-20 -19 -78 -48 -164 -82 -74 -28 -136 -58 -139
-66 -9 -24 8 -43 65 -75 l52 -30 57 45 c97 75 129 83 117 29 -19 -80 -509
-760 -1536 -2130 -242 -323 -444 -592 -449 -597 -7 -10 151 -148 184 -161 9
-3 172 147 448 413 1165 1121 2201 2114 2612 2501 342 323 432 440 432 562 -1
42 -8 68 -30 109 -41 74 -139 172 -204 206 -85 43 -224 73 -393 86 -272 20
-326 13 -1579 -206 -617 -108 -1123 -194 -1125 -192 -2 2 103 64 233 137 529
296 940 544 1278 771 94 63 215 138 270 168 55 30 147 82 205 116 181 108 341
196 425 235 84 39 102 58 120 132 6 24 10 26 41 21 30 -5 35 -2 51 26 16 29
22 32 55 28 77 -10 266 -115 438 -243 54 -40 158 -114 232 -165 243 -168 402
-292 503 -394 119 -119 155 -181 155 -267 0 -55 1 -58 53 -109 108 -107 262
-232 316 -258 51 -24 66 -26 181 -26 112 1 132 4 194 28 101 40 181 92 269
176 87 83 164 191 198 278 18 45 23 79 23 154 1 91 -1 99 -36 170 -21 40 -79
126 -128 189 -133 169 -264 369 -330 505 -33 66 -98 219 -145 339 -85 215
-165 388 -207 450 -12 17 -45 57 -74 88 -29 32 -78 99 -110 150 -58 94 -199
358 -191 358 2 0 38 -28 79 -63 163 -135 326 -237 379 -237 22 0 20 3 -18 43
-22 23 -69 94 -103 157 -35 63 -99 173 -142 244 -44 71 -90 150 -103 175 -74
147 -89 309 -41 444 21 59 26 88 21 115 -9 51 -45 110 -94 155 -44 40 -51 61
-25 71 29 11 151 6 231 -9 130 -25 185 -16 253 43 39 33 90 116 90 145 0 8
-43 44 -96 82 l-96 67 -167 3 c-115 2 -203 9 -284 24 -66 11 -121 21 -123 21
-2 0 -9 -10 -15 -22z m371 -154 c52 -8 114 -13 138 -10 40 5 42 4 42 -19 0
-73 -106 -86 -276 -35 -56 17 -122 30 -153 30 -46 0 -52 2 -41 15 30 36 141
44 290 19z"/>
<path d="M9694 9633 c3 -16 98 -503 211 -1083 114 -580 209 -1065 212 -1077 5
-23 7 -23 172 -23 l168 0 129 715 c71 393 131 715 134 715 3 0 40 -181 83
-403 43 -221 105 -543 139 -714 l61 -313 168 0 167 0 6 28 c3 15 91 502 196
1082 104 580 192 1065 195 1078 l5 22 -187 0 -188 0 -103 -672 c-57 -370 -106
-681 -110 -691 -5 -11 -61 266 -137 672 l-130 691 -165 0 -165 0 -125 -689
c-69 -379 -127 -687 -130 -685 -3 3 -57 312 -121 687 l-115 682 -188 3 -188 2
6 -27z"/>
<path d="M14080 8555 l0 -1105 180 0 180 0 0 1105 0 1105 -180 0 -180 0 0
-1105z"/>
<path d="M15368 9316 l-3 -344 -75 55 c-116 86 -147 97 -270 97 -93 1 -111 -2
-161 -25 -102 -48 -167 -137 -195 -268 -20 -95 -20 -1016 0 -1112 30 -141 104
-238 212 -278 50 -20 74 -22 164 -19 132 4 191 30 285 124 l65 65 0 -80 0 -81
170 0 170 0 0 1105 0 1105 -180 0 -180 0 -2 -344z m-62 -517 l59 -35 3 -491 2
-490 -69 -37 c-120 -63 -219 -45 -266 49 -19 38 -20 60 -20 480 l0 440 25 44
c52 91 154 106 266 40z"/>
<path d="M12202 9110 c-186 -49 -301 -173 -348 -375 -17 -71 -19 -124 -19
-470 0 -339 3 -399 18 -459 51 -200 168 -323 354 -371 75 -20 268 -19 352 0
186 44 311 178 358 386 15 62 17 133 18 449 0 330 -2 385 -18 455 -51 219
-175 348 -375 391 -96 20 -251 17 -340 -6z m261 -284 c43 -18 73 -53 92 -105
12 -36 15 -110 15 -445 0 -249 -4 -415 -11 -439 -12 -46 -58 -100 -99 -117
-45 -19 -149 -9 -187 18 -76 54 -85 121 -81 576 4 401 5 414 61 475 45 49 142
66 210 37z"/>
<path d="M13763 9115 c-103 -28 -182 -79 -245 -158 l-38 -49 0 96 0 96 -170 0
-170 0 0 -825 0 -825 180 0 179 0 3 603 c3 586 4 603 23 637 29 48 90 88 157
102 55 11 136 5 251 -19 l27 -5 0 181 0 181 -72 -1 c-40 0 -97 -7 -125 -14z"/>
<path d="M8300 8275 l0 -145 390 0 390 0 0 145 0 145 -390 0 -390 0 0 -145z"/>
<path d="M9370 6720 l0 -370 45 0 45 0 0 370 0 370 -45 0 -45 0 0 -370z"/>
<path d="M14017 7083 c-4 -3 -7 -62 -7 -129 l0 -124 -26 10 c-69 27 -190 -9
-233 -68 -58 -83 -71 -198 -32 -288 46 -104 91 -126 264 -132 l127 -4 0 371 0
371 -43 0 c-24 0 -47 -3 -50 -7z m-33 -333 l26 -10 0 -151 0 -152 -69 6 c-83
7 -105 17 -128 60 -24 45 -23 144 3 188 33 57 107 83 168 59z"/>
<path d="M10860 7020 c-11 -11 -20 -29 -20 -40 0 -25 34 -60 58 -60 40 1 69
47 51 83 -23 42 -57 49 -89 17z"/>
<path d="M14705 7026 c-39 -29 -14 -106 35 -106 30 0 53 26 53 60 0 34 -23 60
-53 60 -9 0 -25 -6 -35 -14z"/>
<path d="M10068 6846 c-43 -47 -78 -87 -78 -90 0 -3 16 -6 35 -6 l35 0 1 -97
c0 -54 3 -129 8 -166 6 -57 12 -73 39 -99 27 -28 40 -33 95 -36 46 -3 73 0 95
12 29 15 32 21 32 61 0 25 -2 45 -4 45 -2 0 -20 -7 -41 -16 -52 -21 -96 -15
-112 16 -8 16 -13 70 -13 153 l0 127 70 0 70 0 0 45 0 45 -70 0 -70 0 0 45 c0
25 -3 45 -7 45 -5 -1 -43 -38 -85 -84z"/>
<path d="M7340 6834 c-19 -8 -42 -22 -52 -31 -17 -15 -18 -14 -18 10 0 26 -3
27 -50 27 l-50 0 0 -246 0 -245 48 3 47 3 3 177 2 177 31 25 c37 31 87 34 120
7 23 -19 24 -25 29 -203 l5 -183 48 -3 47 -3 0 180 0 180 27 20 c50 40 112 40
135 -2 9 -14 15 -82 18 -197 l5 -175 48 -3 47 -3 0 173 c0 95 -5 190 -10 210
-33 117 -160 153 -251 71 l-39 -35 -22 27 c-23 30 -74 55 -110 55 -13 -1 -39
-8 -58 -16z"/>
<path d="M11700 6834 c-19 -8 -42 -22 -52 -31 -17 -15 -18 -14 -18 10 0 26 -3
27 -50 27 l-50 0 0 -246 0 -245 48 3 47 3 3 177 2 177 31 25 c37 31 87 34 120
7 23 -19 24 -25 29 -203 l5 -183 48 -3 47 -3 0 180 0 180 27 20 c50 40 112 40
135 -2 9 -14 15 -82 18 -197 l5 -175 48 -3 47 -3 0 173 c0 95 -5 190 -10 210
-33 117 -160 153 -251 71 l-39 -35 -20 24 c-23 30 -78 58 -112 58 -12 -1 -39
-8 -58 -16z"/>
<path d="M12898 6840 c-84 -25 -139 -106 -146 -214 -5 -86 8 -139 49 -195 43
-61 101 -84 193 -79 44 2 86 11 111 23 38 19 40 22 43 74 l3 53 -34 -21 c-19
-12 -60 -26 -90 -32 -50 -10 -60 -9 -99 10 -45 21 -78 64 -78 100 0 20 4 21
156 21 l157 0 -6 58 c-13 151 -129 241 -259 202z m111 -94 c27 -14 51 -53 51
-81 0 -12 -20 -15 -105 -15 -67 0 -105 4 -105 10 0 24 32 70 58 84 35 19 66
20 101 2z"/>
<path d="M15427 6836 c-63 -23 -77 -42 -77 -102 l0 -53 51 35 c80 53 148 44
165 -22 9 -37 1 -48 -57 -68 -125 -43 -169 -86 -169 -167 0 -33 6 -47 34 -75
28 -28 41 -34 78 -34 24 0 60 8 80 18 35 18 37 18 52 0 20 -22 76 -24 116 -3
25 13 30 22 30 50 l0 35 -26 -16 c-39 -26 -44 -9 -44 161 0 133 -2 154 -20
183 -38 61 -131 87 -213 58z m143 -316 c0 -70 0 -70 -34 -87 -43 -20 -79 -11
-94 23 -19 40 3 74 68 106 30 15 56 28 58 28 1 0 2 -32 2 -70z"/>
<path d="M8400 6658 c0 -208 11 -251 72 -288 56 -34 146 -24 196 22 l22 21 0
-31 c0 -31 1 -32 45 -32 l45 0 0 245 0 245 -45 0 -45 0 0 -169 c0 -154 -2
-171 -20 -194 -37 -47 -120 -58 -152 -20 -9 11 -14 70 -18 197 l-5 181 -47 3
-48 3 0 -183z"/>
<path d="M10850 6594 l0 -245 48 3 47 3 3 243 2 242 -50 0 -50 0 0 -246z"/>
<path d="M14692 6598 l3 -243 45 0 45 0 3 243 2 242 -50 0 -50 0 2 -242z"/>
</g>
</svg>
