<svg xmlns="http://www.w3.org/2000/svg" viewBox="0 0 100.44 134.01"><defs><style>.cls-1{fill:#4b3154;}.cls-2{isolation:isolate;}.cls-3{fill:#d7cbd4;}.cls-4{fill:#ded2da;}.cls-5{fill:#beafbe;}.cls-6{fill:#5e9af2;}.cls-7{fill:#f0f0f2;}.cls-8{fill:#7579b6;}.cls-9{fill:#6a70ac;}.cls-10{fill:#62cbe4;}.cls-11{fill:#f7736a;}.cls-12{fill:#fdcb3a;}</style></defs><title>Content_calendar</title><g id="Layer_2" data-name="Layer 2"><g id="Hành_tinh_Content_Producers" data-name="Hành tinh Content Producers"><path class="cls-1" d="M52.06,23.46l.78-1.35a12.62,12.62,0,0,1-5.73-9.87H45.54A14.11,14.11,0,0,0,52.06,23.46Z"/><path class="cls-1" d="M63.44,17l.79-1.35A12.62,12.62,0,0,1,58.5,5.74H56.93A14.12,14.12,0,0,0,63.44,17Z"/><path class="cls-1" d="M29.29,36.55l.79-1.35a12.62,12.62,0,0,1-5.73-9.87H22.78A14.12,14.12,0,0,0,29.29,36.55Z"/><path class="cls-1" d="M40.68,30l.78-1.35a12.59,12.59,0,0,1-5.73-9.87H34.16A14.09,14.09,0,0,0,40.68,30Z"/><g class="cls-2"><polygon class="cls-3" points="17.32 117.93 80.61 81.39 64.6 76.86 1.31 113.41 17.32 117.93"/><polygon class="cls-4" points="33.31 131.78 96.6 95.24 80.61 81.39 17.32 117.93 33.31 131.78"/><polygon class="cls-5" points="1.31 113.41 64.6 76.86 77.94 4.11 14.65 40.65 1.31 113.41"/><polygon class="cls-6" points="34.61 134.01 97.9 97.46 77.95 0 14.66 36.55 34.61 134.01"/><path class="cls-4" d="M34.61,134,17.32,119,0,114.13,14.66,36.55Zm-1.3-2.23L14.65,40.65,1.31,113.41l16,4.52Z"/></g><g class="cls-2"><polygon class="cls-5" points="21.48 39.01 75.56 7.79 74.67 7.54 20.59 38.77 21.48 39.01"/><polygon class="cls-7" points="39.44 126.7 93.52 95.48 75.56 7.79 21.48 39.01 39.44 126.7"/><path class="cls-5" d="M68.38,14.21a3.65,3.65,0,0,0-1.66,2.86c0,1.05.74,1.48,1.66.95A3.66,3.66,0,0,0,70,15.17C70,14.11,69.29,13.69,68.38,14.21Z"/><path class="cls-5" d="M57,20.75a3.63,3.63,0,0,0-1.66,2.86c0,1.05.74,1.47,1.66.95a3.66,3.66,0,0,0,1.65-2.86C58.65,20.65,57.91,20.23,57,20.75Z"/><path class="cls-5" d="M45.61,27.29A3.64,3.64,0,0,0,44,30.14c0,1.05.75,1.48,1.66.95a3.61,3.61,0,0,0,1.66-2.85C47.27,27.19,46.53,26.76,45.61,27.29Z"/><path class="cls-5" d="M34.23,33.83a3.61,3.61,0,0,0-1.66,2.85c0,1,.74,1.48,1.66,1a3.63,3.63,0,0,0,1.65-2.85C35.88,33.73,35.14,33.3,34.23,33.83Z"/><polygon class="cls-4" points="21.48 39.01 20.59 38.77 38.54 126.46 39.44 126.7 21.48 39.01"/></g><path class="cls-1" d="M22.78,25.33h1.57c0-1.59.49-2.75,1.4-3.27s2.16-.37,3.54.43A12.59,12.59,0,0,1,35,32.36a5.27,5.27,0,0,1,0,.7,3.1,3.1,0,0,1-1.36,2.56l0,0v.1c0,.74.37,1.17.9,1.18a4.78,4.78,0,0,0,2.1-4c0-.18,0-.37,0-.56a14.13,14.13,0,0,0-6.51-11.23c-1.89-1.08-3.71-1.23-5.12-.42S22.78,23.16,22.78,25.33Z"/><path class="cls-1" d="M34.16,18.79h1.57c0-1.59.5-2.75,1.4-3.26s2.16-.37,3.55.42a12.61,12.61,0,0,1,5.73,9.87c0,.25,0,.48,0,.7A3.17,3.17,0,0,1,45,29.09l0,0a.41.41,0,0,0,0,.11c0,.74.37,1.17.91,1.17a4.77,4.77,0,0,0,2.09-4,5.15,5.15,0,0,0,0-.56A14.12,14.12,0,0,0,41.46,14.6c-1.89-1.08-3.7-1.23-5.11-.43S34.16,16.62,34.16,18.79Z"/><path class="cls-1" d="M45.54,12.24h1.57c0-1.59.5-2.75,1.4-3.27s2.16-.37,3.55.43a12.58,12.58,0,0,1,5.72,9.87c0,.24,0,.48,0,.7a3.13,3.13,0,0,1-1.37,2.56l0,0a.34.34,0,0,0,0,.1c0,.74.37,1.17.91,1.18a4.8,4.8,0,0,0,2.09-4,5.15,5.15,0,0,0,0-.56A14.09,14.09,0,0,0,52.84,8.05C51,7,49.14,6.81,47.73,7.62S45.54,10.07,45.54,12.24Z"/><path class="cls-1" d="M56.93,5.74H58.5c0-1.59.5-2.75,1.4-3.27s2.16-.37,3.54.43a12.59,12.59,0,0,1,5.73,9.87c0,.24,0,.47,0,.7A3.16,3.16,0,0,1,67.77,16l0,0v.1c0,.74.37,1.17.91,1.18a4.8,4.8,0,0,0,2.09-4,5.15,5.15,0,0,0,0-.56A14.13,14.13,0,0,0,64.23,1.54C62.34.46,60.52.31,59.12,1.12S56.93,3.57,56.93,5.74Z"/><path class="cls-3" d="M27.31,51.92l0-.1L75.06,24.38,89.58,94.75l0,.1L41.75,121.93ZM74.86,24.84,27.62,52,42,121.48,89.27,94.7Z"/><polygon class="cls-8" points="43.22 34.86 73.38 17.79 74.41 22.73 44.3 40.02 43.22 34.86"/><path class="cls-3" d="M77.26,101.69h0a.16.16,0,0,0,.12-.18l-14.35-70a.16.16,0,0,0-.17-.12.16.16,0,0,0-.12.18l14.35,70A.14.14,0,0,0,77.26,101.69Z"/><path class="cls-3" d="M39.26,45.21H39l14.39,69.9a.16.16,0,0,0,.15.11h0a.14.14,0,0,0,.11-.17Z"/><path class="cls-3" d="M65.29,108.54h0a.15.15,0,0,0,.12-.17L51,38.25a.14.14,0,1,0-.28.06l14.4,70.11A.14.14,0,0,0,65.29,108.54Z"/><polygon class="cls-3" points="39.64 110.75 87.13 83.35 86.98 83.1 39.49 110.5 39.64 110.75"/><polygon class="cls-3" points="37.24 99.12 84.73 71.72 84.58 71.46 37.09 98.86 37.24 99.12"/><polygon class="cls-3" points="34.83 87.43 82.32 60.03 82.17 59.78 34.68 87.18 34.83 87.43"/><polygon class="cls-3" points="32.42 75.77 79.91 48.37 79.76 48.11 32.27 75.51 32.42 75.77"/><polygon class="cls-3" points="30.01 64.08 77.5 36.68 77.35 36.43 29.86 63.83 30.01 64.08"/><path class="cls-9" d="M70.15,59.2c-.44,3.42,1.57,5.19,4.46,3.71a10.5,10.5,0,0,0,5.09-8.38c0-2.84-1.9-4.08-4.33-3A10.58,10.58,0,0,0,70.15,59.2Z"/><polygon class="cls-10" points="50.39 40.77 51.3 45.28 41.4 50.97 40.48 46.46 50.39 40.77"/><polygon class="cls-11" points="71.44 80.3 73.42 90.07 64.17 95.38 62.18 85.65 71.44 80.3"/><polygon class="cls-11" points="52.3 52.2 54.27 61.97 45.02 67.28 43.04 57.55 52.3 52.2"/><polygon class="cls-10" points="98.8 15.45 96.76 21.09 100.44 23.55 73.16 39.21 71.54 31.21 98.8 15.45"/><polygon class="cls-11" points="71 43.09 93.1 30.32 91.03 35.97 94.72 38.29 72.6 50.99 71.73 46.69 71 43.09"/><polygon class="cls-11" points="40.37 74.39 42 82.48 14.72 98.15 17.86 92.31 13.11 90.14 40.37 74.39"/><polygon class="cls-12" points="14.07 76.13 36.17 63.35 37.79 71.32 15.66 84.03 18.52 78.18 14.07 76.13"/></g></g></svg>