<svg xmlns="http://www.w3.org/2000/svg" xmlns:xlink="http://www.w3.org/1999/xlink" viewBox="0 0 161.87 232.03"><defs><style>.cls-1{fill:#9d9ece;}.cls-2{fill:#8e90c5;}.cls-3{fill:#fdcb3a;}.cls-4{fill:#eba924;}.cls-5{isolation:isolate;}.cls-6{clip-path:url(#clip-path);}.cls-7{fill:#d7cbd4;}.cls-8{clip-path:url(#clip-path-2);}.cls-9{fill:#5e9af2;}.cls-10{fill:#f0f0f2;}.cls-11{fill:#5f639b;}.cls-12{fill:#826c88;}.cls-13{fill:#ded2da;}.cls-14{fill:#62cbe4;}.cls-15{fill:#f7736a;}.cls-16{clip-path:url(#clip-path-3);}.cls-17{clip-path:url(#clip-path-4);}.cls-18{clip-path:url(#clip-path-5);}.cls-19{fill:#f6b814;}</style><clipPath id="clip-path" transform="translate(0 0)"><path class="cls-1" d="M1.29,16.63,3.92,15.1a2.29,2.29,0,0,1,2.33.23L3.62,16.85A2.31,2.31,0,0,0,1.29,16.63Z"/></clipPath><clipPath id="clip-path-2" transform="translate(0 0)"><path class="cls-2" d="M156,104.82l2.63-1.53a7.21,7.21,0,0,1,3.26,5.65l-2.63,1.53A7.21,7.21,0,0,0,156,104.82Z"/></clipPath><clipPath id="clip-path-3" transform="translate(0 0)"><path class="cls-3" d="M24.39,1,25.71.25a2.61,2.61,0,0,1,2.64.26L27,1.27A2.64,2.64,0,0,0,24.39,1Z"/></clipPath><clipPath id="clip-path-4" transform="translate(0 0)"><path class="cls-4" d="M78.2,43.92l-1.31.76A2.59,2.59,0,0,0,78,42.29l1.32-.76A2.61,2.61,0,0,1,78.2,43.92Z"/></clipPath><clipPath id="clip-path-5" transform="translate(0 0)"><path class="cls-4" d="M74.3,28.56l1.31-.77a8.17,8.17,0,0,1,3.7,6.42L78,35A8.19,8.19,0,0,0,74.3,28.56Z"/></clipPath></defs><title>Content_calendar_2</title><g id="Layer_2" data-name="Layer 2"><g id="Hành_tinh_Content_Producers" data-name="Hành tinh Content Producers"><g class="cls-5"><path class="cls-1" d="M1.29,16.63,3.92,15.1a2.29,2.29,0,0,1,2.33.23L3.62,16.85A2.31,2.31,0,0,0,1.29,16.63Z" transform="translate(0 0)"/><g class="cls-6"><g class="cls-5"><path class="cls-1" d="M1.29,16.63,3.92,15.1a2.13,2.13,0,0,1,2,.07L3.32,16.69A2.15,2.15,0,0,0,1.29,16.63Z" transform="translate(0 0)"/><path class="cls-1" d="M3.32,16.69,6,15.17a2.19,2.19,0,0,1,.3.16L3.62,16.85Z" transform="translate(0 0)"/></g></g><path class="cls-7" d="M160.58,230.28,158,231.81a2.27,2.27,0,0,0,1-2.1l2.63-1.52A2.26,2.26,0,0,1,160.58,230.28Z" transform="translate(0 0)"/><polygon class="cls-1" points="3.62 16.86 6.25 15.33 158.61 103.29 155.98 104.82 3.62 16.86"/><g class="cls-5"><path class="cls-2" d="M156,104.82l2.63-1.53a7.21,7.21,0,0,1,3.26,5.65l-2.63,1.53A7.21,7.21,0,0,0,156,104.82Z" transform="translate(0 0)"/><g class="cls-8"><g class="cls-5"><path class="cls-2" d="M156,104.82l2.63-1.53a7.23,7.23,0,0,1,2.9,3.72l-2.63,1.53A7.19,7.19,0,0,0,156,104.82Z" transform="translate(0 0)"/><path class="cls-2" d="M158.88,108.54l2.63-1.53a5.86,5.86,0,0,1,.36,1.93l-2.63,1.53A5.86,5.86,0,0,0,158.88,108.54Z" transform="translate(0 0)"/></g></g></g><path class="cls-9" d="M159.24,110.47a7.21,7.21,0,0,0-3.26-5.65L3.62,16.85c-1.81-1-3.28-.2-3.29,1.88l0,15.07,158.9,91.75Z" transform="translate(0 0)"/><path class="cls-10" d="M.29,33.8,0,138a7.19,7.19,0,0,0,3.26,5.65l152.36,88c1.81,1,3.28.21,3.28-1.87l.29-104.16Z" transform="translate(0 0)"/></g><polygon class="cls-11" points="161.87 108.94 159.24 110.47 159.19 125.55 161.82 124.03 161.87 108.94"/><path class="cls-7" d="M159.19,125.55l-.29,104.16a2.27,2.27,0,0,1-1,2.1l2.63-1.53a2.26,2.26,0,0,0,.95-2.09L161.82,124Z" transform="translate(0 0)"/><polygon class="cls-12" points="67.17 77.16 52.6 68.75 52.6 72.39 67.17 80.8 67.17 77.16"/><polygon class="cls-12" points="32.1 56.92 4.03 40.71 4.03 44.34 32.1 60.55 32.1 56.92"/><polygon class="cls-10" points="35.15 38.77 4.03 20.8 4.03 27.4 35.15 45.36 35.15 38.77"/><polygon class="cls-10" points="153.7 110.27 137.28 100.8 137.28 107.39 153.7 116.86 153.7 110.27"/><polygon class="cls-10" points="135.84 99.96 119.42 90.48 119.42 97.08 135.84 106.55 135.84 99.96"/><polygon class="cls-10" points="117.98 89.65 111.92 86.16 111.92 92.75 117.98 96.24 117.98 89.65"/><polygon class="cls-10" points="110.42 85.29 104.37 81.79 104.37 88.39 110.42 91.88 110.42 85.29"/><polygon class="cls-10" points="27.04 42.63 4.03 29.35 4.03 32.64 27.04 45.93 27.04 42.63"/><polygon class="cls-12" points="83.59 86.64 69.03 78.23 69.03 81.87 83.59 90.28 83.59 86.64"/><polygon class="cls-12" points="119.47 107.38 85.3 87.65 85.3 91.28 119.47 111.01 119.47 107.38"/><polygon class="cls-12" points="155.22 128 121.05 108.27 121.05 111.91 155.22 131.64 155.22 128"/><polygon class="cls-13" points="7.88 50.6 7.88 60.83 50.84 85.64 50.84 75.4 7.88 50.6"/><polygon class="cls-13" points="67.17 84.83 52.6 76.42 52.6 86.66 67.17 95.06 67.17 84.83"/><polygon class="cls-13" points="7.88 72.9 50.84 97.7 50.84 87.47 7.88 62.66 7.88 72.9"/><polygon class="cls-13" points="67.17 107.13 67.17 96.89 52.6 88.48 52.6 98.72 67.17 107.13"/><polygon class="cls-13" points="67.17 119.19 67.17 108.95 52.6 100.55 52.6 110.78 67.17 119.19"/><polygon class="cls-13" points="7.88 84.96 50.84 109.76 50.84 99.53 7.88 74.72 7.88 84.96"/><polygon class="cls-13" points="7.88 97.02 50.84 121.83 50.84 111.59 7.88 86.79 7.88 97.02"/><polygon class="cls-13" points="67.17 131.25 67.17 121.02 52.6 112.61 52.6 122.84 67.17 131.25"/><polygon class="cls-13" points="83.59 94.31 69.03 85.9 69.03 96.14 83.59 104.55 83.59 94.31"/><polygon class="cls-13" points="83.59 116.61 83.59 106.37 69.03 97.96 69.03 108.2 83.59 116.61"/><polygon class="cls-13" points="83.59 128.67 83.59 118.44 69.03 110.03 69.03 120.26 83.59 128.67"/><polygon class="cls-13" points="83.59 140.73 83.59 130.5 69.03 122.09 69.03 132.32 83.59 140.73"/><polygon class="cls-3" points="119.47 115.03 85.3 95.3 85.3 105.53 119.47 125.26 119.47 115.03"/><polygon class="cls-14" points="119.47 137.32 119.47 127.09 85.3 107.36 85.3 117.59 119.47 137.32"/><polygon class="cls-15" points="119.47 149.39 119.47 139.15 85.3 119.42 85.3 129.66 119.47 149.39"/><polygon class="cls-9" points="119.47 161.45 119.47 151.21 85.3 131.48 85.3 141.72 119.47 161.45"/><polygon class="cls-9" points="155.22 135.67 121.05 115.94 121.05 126.17 155.22 145.9 155.22 135.67"/><polygon class="cls-3" points="155.22 157.96 155.22 147.73 121.05 128 121.05 138.23 155.22 157.96"/><polygon class="cls-3" points="155.22 170.03 155.22 159.79 121.05 140.06 121.05 150.3 155.22 170.03"/><polygon class="cls-14" points="155.22 182.09 155.22 171.85 121.05 152.12 121.05 162.36 155.22 182.09"/><polygon class="cls-3" points="4.03 48.37 4.03 58.61 6.59 60.09 6.59 49.86 4.03 48.37"/><polygon class="cls-3" points="4.03 70.67 6.59 72.16 6.59 61.92 4.03 60.44 4.03 70.67"/><polygon class="cls-3" points="4.03 82.73 6.59 84.22 6.59 73.98 4.03 72.5 4.03 82.73"/><polygon class="cls-3" points="4.03 94.8 6.59 96.28 6.59 86.05 4.03 84.56 4.03 94.8"/><polygon class="cls-13" points="7.88 109.13 7.88 119.36 50.84 144.17 50.84 133.93 7.88 109.13"/><polygon class="cls-13" points="67.17 143.36 52.6 134.95 52.6 145.18 67.17 153.59 67.17 143.36"/><polygon class="cls-13" points="7.88 131.43 50.84 156.23 50.84 146 7.88 121.19 7.88 131.43"/><polygon class="cls-13" points="67.17 165.66 67.17 155.42 52.6 147.01 52.6 157.25 67.17 165.66"/><polygon class="cls-13" points="67.17 177.72 67.17 167.48 52.6 159.07 52.6 169.31 67.17 177.72"/><polygon class="cls-13" points="7.88 143.49 50.84 168.29 50.84 158.06 7.88 133.25 7.88 143.49"/><polygon class="cls-13" points="83.59 152.84 69.03 144.43 69.03 154.66 83.59 163.07 83.59 152.84"/><polygon class="cls-13" points="83.59 175.14 83.59 164.9 69.03 156.49 69.03 166.73 83.59 175.14"/><polygon class="cls-13" points="83.59 187.2 83.59 176.97 69.03 168.56 69.03 178.79 83.59 187.2"/><polygon class="cls-14" points="119.47 173.55 85.3 153.82 85.3 164.06 119.47 183.79 119.47 173.55"/><polygon class="cls-3" points="119.47 195.85 119.47 185.62 85.3 165.89 85.3 176.12 119.47 195.85"/><polygon class="cls-9" points="119.47 207.91 119.47 197.68 85.3 177.95 85.3 188.19 119.47 207.91"/><polygon class="cls-15" points="155.22 194.19 121.05 174.47 121.05 184.7 155.22 204.43 155.22 194.19"/><polygon class="cls-12" points="67.17 135.94 52.6 127.53 52.6 131.17 67.17 139.58 67.17 135.94"/><polygon class="cls-12" points="32.1 115.7 4.03 99.49 4.03 103.12 32.1 119.33 32.1 115.7"/><polygon class="cls-12" points="83.59 145.42 69.03 137.01 69.03 140.65 83.59 149.06 83.59 145.42"/><polygon class="cls-12" points="119.47 166.14 85.3 146.41 85.3 150.04 119.47 169.78 119.47 166.14"/><polygon class="cls-12" points="155.22 186.78 121.05 167.05 121.05 170.69 155.22 190.42 155.22 186.78"/><polygon class="cls-14" points="155.22 216.49 155.22 206.26 121.05 186.53 121.05 196.76 155.22 216.49"/><polygon class="cls-9" points="155.22 228.56 155.22 218.32 121.05 198.59 121.05 208.82 155.22 228.56"/><polygon class="cls-15" points="4.03 106.9 4.03 117.14 6.59 118.62 6.59 108.39 4.03 106.9"/><polygon class="cls-15" points="4.02 129.2 6.59 130.68 6.59 120.45 4.03 118.97 4.02 129.2"/><polygon class="cls-15" points="4.02 141.26 6.59 142.75 6.59 132.51 4.02 131.03 4.02 141.26"/><g class="cls-5"><g class="cls-5"><path class="cls-3" d="M24.39,1,25.71.25a2.61,2.61,0,0,1,2.64.26L27,1.27A2.64,2.64,0,0,0,24.39,1Z" transform="translate(0 0)"/><g class="cls-16"><g class="cls-5"><path class="cls-3" d="M24.39,1,25.71.25A2.43,2.43,0,0,1,28,.33l-1.31.76A2.47,2.47,0,0,0,24.39,1Z" transform="translate(0 0)"/><path class="cls-3" d="M26.69,1.09,28,.33a2.91,2.91,0,0,1,.35.18L27,1.27Z" transform="translate(0 0)"/></g></g></g><g class="cls-5"><path class="cls-4" d="M78.2,43.92l-1.31.76A2.59,2.59,0,0,0,78,42.29l1.32-.76A2.61,2.61,0,0,1,78.2,43.92Z" transform="translate(0 0)"/><g class="cls-17"><g class="cls-5"><path class="cls-4" d="M78,42.29l1.32-.76a2.61,2.61,0,0,1-1.09,2.39l-1.31.76A2.59,2.59,0,0,0,78,42.29Z" transform="translate(0 0)"/></g></g></g><polygon class="cls-4" points="78 34.97 79.31 34.21 79.29 41.53 77.97 42.3 78 34.97"/><polygon class="cls-3" points="27.03 1.27 28.35 0.51 75.61 27.79 74.3 28.56 27.03 1.27"/><g class="cls-5"><path class="cls-4" d="M74.3,28.56l1.31-.77a8.17,8.17,0,0,1,3.7,6.42L78,35A8.19,8.19,0,0,0,74.3,28.56Z" transform="translate(0 0)"/><g class="cls-18"><g class="cls-5"><path class="cls-3" d="M74.3,28.56l1.31-.77A8.21,8.21,0,0,1,78.91,32l-1.32.77A8.16,8.16,0,0,0,74.3,28.56Z" transform="translate(0 0)"/><path class="cls-4" d="M77.59,32.79,78.91,32a6.69,6.69,0,0,1,.4,2.19L78,35A6.6,6.6,0,0,0,77.59,32.79Z" transform="translate(0 0)"/></g></g></g><path class="cls-19" d="M74.3,28.56A8.19,8.19,0,0,1,78,35l0,7.32c0,2.36-1.67,3.31-3.72,2.13L27,17.14a8.17,8.17,0,0,1-3.7-6.42l0-7.32C23.32,1,25,.09,27,1.27Z" transform="translate(0 0)"/></g></g></g></svg>