<svg xmlns="http://www.w3.org/2000/svg" xmlns:xlink="http://www.w3.org/1999/xlink" viewBox="0 0 141.84 131.3"><defs><style>.cls-1{fill:#ded2da;}.cls-2{fill:#7b6381;}.cls-3{fill:#f7736a;}.cls-4{fill:#d54c41;}.cls-5{fill:#ffbfa2;}.cls-6{fill:#ee9c76;}.cls-7{fill:#5f639b;}.cls-8{fill:#2aa5c5;}.cls-9{fill:#2a1a30;}.cls-10{fill:#f3a984;}.cls-11{fill:#62476a;}.cls-12{isolation:isolate;}.cls-13{clip-path:url(#clip-path);}.cls-14{clip-path:url(#clip-path-2);}.cls-15{fill:#f0eaee;}.cls-16{fill:#ebe0e7;}.cls-17{clip-path:url(#clip-path-3);}.cls-18{fill:#88758f;}.cls-19{clip-path:url(#clip-path-4);}.cls-20{fill:#4b3154;}.cls-21{clip-path:url(#clip-path-5);}.cls-22{clip-path:url(#clip-path-6);}.cls-23{fill:#f0f0f2;}.cls-24{fill:#d7cbd4;}.cls-25{clip-path:url(#clip-path-7);}.cls-26{clip-path:url(#clip-path-8);}.cls-27{clip-path:url(#clip-path-9);}.cls-28{fill:#f05850;}.cls-29{fill:#eba924;}.cls-30{fill:#f6b814;}.cls-31{fill:#fdcb3a;}.cls-32{fill:#5e9af2;}.cls-33{fill:#beafbe;}.cls-34{fill:#ffc7ad;}</style><clipPath id="clip-path"><path class="cls-1" d="M4.62,29.06l13.72,3.59a2.63,2.63,0,0,0-2.64.25L3.82,29.13A.81.81,0,0,1,4.62,29.06Z"/></clipPath><clipPath id="clip-path-2"><path class="cls-1" d="M13.08,41.64,3,31.75a.75.75,0,0,1-.33-.7,2.46,2.46,0,0,1,1.11-1.92L15.7,32.9A8.1,8.1,0,0,0,12,39.28,2.55,2.55,0,0,0,13.08,41.64Z"/></clipPath><clipPath id="clip-path-3"><path class="cls-2" d="M18.31,32.64,55.47,54.29a2.62,2.62,0,0,0-2.63.26L15.68,32.9A2.62,2.62,0,0,1,18.31,32.64Z"/></clipPath><clipPath id="clip-path-4"><path class="cls-2" d="M50.22,63.3,13.06,41.65A2.6,2.6,0,0,1,12,39.28a8.11,8.11,0,0,1,3.7-6.38L52.84,54.55a8.11,8.11,0,0,0-3.7,6.38A2.58,2.58,0,0,0,50.22,63.3Z"/></clipPath><clipPath id="clip-path-5"><path class="cls-1" d="M55.48,55l4,2.34a2.33,2.33,0,0,0-2.34.23l-4-2.34A2.33,2.33,0,0,1,55.48,55Z"/></clipPath><clipPath id="clip-path-6"><path class="cls-1" d="M54.85,65.28l-4-2.35a2.29,2.29,0,0,1-1-2.09,7.21,7.21,0,0,1,3.28-5.65l4,2.34a7.19,7.19,0,0,0-3.29,5.65A2.31,2.31,0,0,0,54.85,65.28Z"/></clipPath><clipPath id="clip-path-7"><path class="cls-3" d="M104,1.91,106.85.27a2.82,2.82,0,0,1,2.84.28l-2.82,1.64A2.82,2.82,0,0,0,104,1.91Z"/></clipPath><clipPath id="clip-path-8"><path class="cls-4" d="M126.88,25l-2.82,1.64A2.78,2.78,0,0,0,125.22,24L128,22.39A2.78,2.78,0,0,1,126.88,25Z"/></clipPath><clipPath id="clip-path-9"><path class="cls-3" d="M121.27,10.5l2.82-1.64a8.73,8.73,0,0,1,4,6.88l-2.82,1.64A8.74,8.74,0,0,0,121.27,10.5Z"/></clipPath></defs><title>Content_team</title><g id="Layer_2" data-name="Layer 2"><g id="Hành_tinh_Content_Producers" data-name="Hành tinh Content Producers"><g id="_01_weather_app" data-name="01 weather app"><path class="cls-5" d="M35.34,51.8a2.11,2.11,0,0,0-1.18-.63,6.64,6.64,0,0,0-2,0c-1,.12-2,.3-3,.46-.66.11-1.32.22-2,.31L26,52.12a1.17,1.17,0,0,1-.88-.09A32.38,32.38,0,0,1,23,49.36c-.21-.29-2.92-3.58-3.21-3.91a1.56,1.56,0,0,0-1-.66.77.77,0,0,0-.93.47c-.06.2-.48,1.18-.3,1.24s.48.58.74.9a8.21,8.21,0,0,1,.92,1.91c.53,1.18,1.09,2.33,1.68,3.48a16.92,16.92,0,0,0,1.42,2.3,3.88,3.88,0,0,0,1.93,1.29,10.14,10.14,0,0,0,3.46.49h.7c5.56-.25,7.13-.6,7.52-2.64A2.79,2.79,0,0,0,35.34,51.8Z"/><path class="cls-6" d="M42.74,103.16a8.8,8.8,0,0,1,.06,1.45c0,.46-.37.2-.65.09a5,5,0,0,1-1.44-.94,1.7,1.7,0,0,0-1.39-.56c-.68.18-1.09,1.07-1.41,1.62a1.33,1.33,0,0,0-.25.63,1.3,1.3,0,0,0,.72,1.06c.58.4,1.24.67,1.83,1a10,10,0,0,1,1,.77c.32.25.66.48,1,.75s.5.55.76.8a2.43,2.43,0,0,0,2.09.54,1.57,1.57,0,0,0,1-.85,3.77,3.77,0,0,0,0-2.25,12.9,12.9,0,0,1-.09-3.51Z"/><path class="cls-7" d="M46,107a2.83,2.83,0,0,1-2.82,1c-1.18-.58-3.25-2.42-2.13-3.51.18-.17.29-.14.6-.09a6.07,6.07,0,0,1-.92-.68,1.7,1.7,0,0,0-1.39-.56c-.68.18-1.09,1.07-1.41,1.62a1.33,1.33,0,0,0-.25.63,1.3,1.3,0,0,0,.72,1.06c.58.4,1.24.67,1.83,1a10,10,0,0,1,1,.77c.32.25.66.48,1,.75s.5.55.76.8a2.42,2.42,0,0,0,2.09.54,1.57,1.57,0,0,0,1-.85,3.69,3.69,0,0,0-.06-2.25C46,107.22,46,107.11,46,107Z"/><path class="cls-6" d="M42.79,104.65c-.07,1,.35.42.68.72a1.46,1.46,0,0,0,2.15,0c.29-.35.23-.9.29-1.33a16,16,0,0,1,1-3.67,11.59,11.59,0,0,0,.27-4.69c-.22-1.69-.81-3.25-1.16-4.9s.06-3.58-.07-5.29a3.59,3.59,0,0,0-.79-2.35,2.33,2.33,0,0,0-2.61-.33,3.58,3.58,0,0,0-1.72,2.12,12.51,12.51,0,0,0-.46,3.76,23.08,23.08,0,0,0,.18,2.63c.28,2.09.86,4.12,1.31,6.18.18.81.34,1.64.48,2.46A25.22,25.22,0,0,1,42.79,104.65Z"/><path class="cls-5" d="M33.38,89.17c0,.37,0,.73,0,1.09.22,2.79.45,5.59.65,8.38.19,2.63,1,5.15,1.26,7.77a17.54,17.54,0,0,0,.54,3.47,2.23,2.23,0,0,0,.83,1.15c.36.2,1.11.37,1.45.07a1,1,0,0,0,.27-.56,12,12,0,0,0,.18-1.2c.32-2.67,1.12-5.27,1.52-7.94a21.21,21.21,0,0,0,0-4.29,27,27,0,0,0-.78-4.63c-.3-1.26.35-2.49-.05-3.81a3.62,3.62,0,0,0-2.35-2.46,2.82,2.82,0,0,0-3.12,1.09A3.54,3.54,0,0,0,33.38,89.17Z"/><path class="cls-5" d="M38.77,111.72a9.42,9.42,0,0,1-.08-3l-3.2-1.21a11.24,11.24,0,0,1,.06,1.42c0,1-1.07.81-1.81.66s-1.2-.27-1.8-.42v2.7H29.61c1,1.2,3,1.1,4.43,1.65,1.19.48,2.38,1.59,3.76,1.25a1.58,1.58,0,0,0,1-.84A3.72,3.72,0,0,0,38.77,111.72Z"/><path class="cls-7" d="M37.89,112.41c-2,.87-6.11-.28-5.86-3.17l-1-.2L30.6,109a1.14,1.14,0,0,0-.41,0,1.54,1.54,0,0,0-1,1,2,2,0,0,0,0,1.4.42.42,0,0,1,0,.1,2.19,2.19,0,0,0,.42.59,2.43,2.43,0,0,0,.5.41,4.18,4.18,0,0,0,1.23.52,23.86,23.86,0,0,1,2.65.66c1.19.48,2.38,1.59,3.76,1.25a1.58,1.58,0,0,0,1-.84,3.72,3.72,0,0,0-.06-2.26c0-.23-.07-.46-.1-.69C38.43,111.67,38.3,112.41,37.89,112.41Z"/><g id="people"><path class="cls-1" d="M46.35,52.33a17.39,17.39,0,0,0,.39-5.09c-.1-1.3.08-3.26-1.42-3.85a3,3,0,0,0-2.57.5c-.22.15-1.09.69-1.29.8-.66.37-1.3.76-1.94,1.15s-.59,1-1.26,1.27a22.71,22.71,0,0,0-3.77,2.32c-1.24.87-2.26,1.4-2.89,3A8.39,8.39,0,0,0,31.29,57c.4,2.11,1.39,3.86,1.58,6a18.74,18.74,0,0,1-.11,4.3,1.13,1.13,0,0,0,.06.73.83.83,0,0,0,.7.33c1.09.11,1.65,2.18,2.68,1.81,1.79-.66,3.87-.28,5.5-1.31,1.16-.75,3.13.6,2.75-1.17a4.63,4.63,0,0,1,0-1.89A3.25,3.25,0,0,0,44.6,64c-.09-.27-.25-.52-.36-.78A4.26,4.26,0,0,1,44,61.1a16.36,16.36,0,0,1,.39-2.29,26.5,26.5,0,0,1,.71-2.61c.35-1.09.77-2.17,1.07-3.28Z"/><path class="cls-8" d="M46.55,73.25c.06,1,.1,1.93.16,2.9.2,3.08.53,6.18.66,9.25.11,2.34-1.7,4.62-3.63,5.75a11.05,11.05,0,0,1-7,1.16A7.91,7.91,0,0,1,33,91c-2.08-1.54-1.62-3.51-1.56-5.77q.11-4,.2-8c.09-3.25,0-6.55.65-9.74a11.73,11.73,0,0,0,.59-2.35,11.3,11.3,0,0,0,11.47-1.66,17.31,17.31,0,0,1,1.19,3.42A25,25,0,0,1,46.55,73.25Z"/></g><path class="cls-5" d="M42.46,43.31c0,.52,0,1,.07,1.57a3.9,3.9,0,0,0,.2,1.28c.18.48.42.71.38,1.24a2.54,2.54,0,0,1-.66,1.48,4.88,4.88,0,0,1-2.61,1.54,3,3,0,0,1-2-.26c-.87-.51-.63-1.19-.56-2.1a4,4,0,0,0-.76-3Z"/><path class="cls-5" d="M34.75,35.94a3,3,0,0,0-.67,1.4c-.15,1,.18,2,.07,3.06a8.78,8.78,0,0,0,.61,2.86,2.14,2.14,0,0,0,.8,1.43c.29.15.64.16.92.34s.29.28.45.4c.47.38,1.32.19,1.85.12a5.67,5.67,0,0,0,1.62-.41,5.73,5.73,0,0,0,2.13-2.33C47.17,35.3,37.88,32,34.75,35.94Z"/><path class="cls-9" d="M43.47,35a2.8,2.8,0,0,0-.32-.62,5.21,5.21,0,0,0-2.35-1.78,6.17,6.17,0,0,0-3.56-.22,3.35,3.35,0,0,0-.7.22,4.31,4.31,0,0,0-1.13.88,5.59,5.59,0,0,0-1.16,1.17,3.11,3.11,0,0,0-.45,1.57,1.34,1.34,0,0,0,.25.66,3.3,3.3,0,0,0,.3.43,6.69,6.69,0,0,1,.7,1.7,1.29,1.29,0,0,0,.39.62c.38.28.93,0,1.38.17a1.13,1.13,0,0,1,.59.57,3.67,3.67,0,0,1,.27.81,7.64,7.64,0,0,1,.16,1.25,2.31,2.31,0,0,0,.45,1.25,3,3,0,0,0,2.78.55,3.71,3.71,0,0,0,.91-.29c1.5-.73,2.39-2.88,2.56-4.5a10.31,10.31,0,0,0,.05-1.11,5.1,5.1,0,0,0-.11-1.17,5.65,5.65,0,0,0-.74-1.57A4.47,4.47,0,0,1,43.47,35Z"/><path class="cls-1" d="M27.72,51.63a1.69,1.69,0,0,1,.45-.14l.75-.19q.75-.18,1.5-.3c1-.16,2-.26,3.06-.34a2.26,2.26,0,0,1,1.31.22,3,3,0,0,1,1,.71,3.23,3.23,0,0,1,.72,2.27c0,.11,0,.21,0,.32a2.68,2.68,0,0,1-1.65,2c-.71.16-1.44.3-2.16.43-1.09.19-2.18.36-3.28.48-.24,0-.49,0-.74.06a2,2,0,0,1-.68,0c-.47-.17-.76-1-.88-1.45a5.34,5.34,0,0,1,0-3.26,1.92,1.92,0,0,1,.55-.82Z"/><path class="cls-5" d="M20.13,43.48a1.6,1.6,0,0,0-.28-.67,1.88,1.88,0,0,0-1-.51,1.86,1.86,0,0,0,.17,1c.13.3.3.59.44.89a3.83,3.83,0,0,0,.3.65c.06.1,0,1.18.17,1.15a.78.78,0,0,0,.38-.46A11.43,11.43,0,0,0,20.13,43.48Z"/><path class="cls-9" d="M47.86,50.41a20.54,20.54,0,0,0-1.25-3.74c-.86-1.88-1-7.2-1.21-8.27h0a7.23,7.23,0,0,0-.8-2.75,6.8,6.8,0,0,0-.83-1.16,6,6,0,0,0-3.41-2.24,7.41,7.41,0,0,0-1.94,0l.12.2h-.12a6.78,6.78,0,0,0-1,.25,2.32,2.32,0,0,0-1.52,1.22,3.36,3.36,0,0,0-.16,1.61,11.51,11.51,0,0,0,.47,2.32,4,4,0,0,0,.42,1.07c.19.28.39.39.51.76a10.57,10.57,0,0,1,.45,3.71c0,.82-.19,1.63-.3,2.44A25.72,25.72,0,0,0,37.14,51a10.6,10.6,0,0,0,.23,2,4.59,4.59,0,0,0,.39,1,8.8,8.8,0,0,1,.56.86c-.11.41.25.77.52,1.09.69.86.78,2.76,2.16,2.71a3.26,3.26,0,0,1,1.39,0c.4.17.67.59,1.08.73a1.26,1.26,0,0,0,1.28-.52,6,6,0,0,0,.69-1.33,1,1,0,0,1,.41-.51,2.43,2.43,0,0,1,.77-.09c.67-.08,1.05-.84,1.25-1.52A9.48,9.48,0,0,0,47.86,50.41Z"/><path class="cls-5" d="M36.64,39.26c.79-.39,1.39.58,1.14,1.63a4.45,4.45,0,0,1-.43.91c-1,1.91-1.85.65-1.56,0C36.48,40.34,35.64,39.75,36.64,39.26Z"/><path class="cls-10" d="M37,41c.06-.13.77-1.08,0-1.22-.22,0-.35.21-.31.42a2.68,2.68,0,0,1,.12.3.61.61,0,0,1,0,.19c0,.18-.26.43-.13.61S37,41,37,41Z"/><path class="cls-11" d="M4.6,29l-4-1c-.31.09-.39.17-.45.27a1.43,1.43,0,0,0-.12.28c0,.22,0,.3.09.33l2.79,2.73A.34.34,0,0,0,3,31.3a1.86,1.86,0,0,1,.08-.51,1.54,1.54,0,0,1,.05-.17,2.21,2.21,0,0,1,.16-.35,1.14,1.14,0,0,1,.1-.19,1.91,1.91,0,0,1,.24-.32,1,1,0,0,1,.12-.16,2.05,2.05,0,0,1,.44-.35,1.15,1.15,0,0,1,.44-.15Z"/><g class="cls-12"><g class="cls-12"><path class="cls-1" d="M4.62,29.06l13.72,3.59a2.63,2.63,0,0,0-2.64.25L3.82,29.13A.81.81,0,0,1,4.62,29.06Z"/><g class="cls-13"><g class="cls-12"><path class="cls-1" d="M15.7,32.9,3.82,29.13s12,3.72,12,3.72Z"/><path class="cls-1" d="M15.79,32.85,3.85,29.12A.86.86,0,0,1,4.23,29l12.83,3.43A3.67,3.67,0,0,0,15.79,32.85Z"/><path class="cls-1" d="M17.06,32.42,4.23,29a.57.57,0,0,1,.29,0L18,32.5A2.07,2.07,0,0,0,17.06,32.42Z"/><path class="cls-1" d="M18,32.5,4.52,29c.1,0,13.82,3.64,13.82,3.64A1.48,1.48,0,0,0,18,32.5Z"/></g></g></g><g class="cls-12"><path class="cls-1" d="M13.08,41.64,3,31.75a.75.75,0,0,1-.33-.7,2.46,2.46,0,0,1,1.11-1.92L15.7,32.9A8.1,8.1,0,0,0,12,39.28,2.55,2.55,0,0,0,13.08,41.64Z"/><g class="cls-14"><g class="cls-12"><path class="cls-1" d="M13.08,41.64,3,31.75a.75.75,0,0,1-.33-.7,1.32,1.32,0,0,1,0-.34l9.36,7.44A6.44,6.44,0,0,0,12,39.28,2.55,2.55,0,0,0,13.08,41.64Z"/><path class="cls-1" d="M12.11,38.15,2.75,30.71a2.3,2.3,0,0,1,.12-.43l9.67,6.46A7.37,7.37,0,0,0,12.11,38.15Z"/><path class="cls-1" d="M12.54,36.74,2.87,30.28a3.88,3.88,0,0,1,.24-.45l10.23,5.41A9.38,9.38,0,0,0,12.54,36.74Z"/><path class="cls-15" d="M13.34,35.24,3.11,29.83a2.36,2.36,0,0,1,.71-.7L15.7,32.9A7.31,7.31,0,0,0,13.34,35.24Z"/></g></g></g><path class="cls-16" d="M15.7,32.9c2.05-1.17,3.72-.23,3.73,2.12a8.1,8.1,0,0,1-3.71,6.36c-2,1.18-3.72.24-3.72-2.1A8.1,8.1,0,0,1,15.7,32.9Z"/></g><g class="cls-12"><g class="cls-12"><path class="cls-2" d="M18.31,32.64,55.47,54.29a2.62,2.62,0,0,0-2.63.26L15.68,32.9A2.62,2.62,0,0,1,18.31,32.64Z"/><g class="cls-17"><g class="cls-12"><path class="cls-18" d="M52.84,54.55,15.68,32.9c.09,0,37.25,21.6,37.25,21.6Z"/><path class="cls-2" d="M52.93,54.5,15.77,32.85A3.53,3.53,0,0,1,17,32.41L54.19,54.06A3.46,3.46,0,0,0,52.93,54.5Z"/><path class="cls-2" d="M54.19,54.06,17,32.41a2.21,2.21,0,0,1,1,.09L55.16,54.15A2.21,2.21,0,0,0,54.19,54.06Z"/><path class="cls-2" d="M55.16,54.15,18,32.5l.31.14L55.47,54.29Z"/></g></g></g><g class="cls-12"><path class="cls-2" d="M50.22,63.3,13.06,41.65A2.6,2.6,0,0,1,12,39.28a8.11,8.11,0,0,1,3.7-6.38L52.84,54.55a8.11,8.11,0,0,0-3.7,6.38A2.58,2.58,0,0,0,50.22,63.3Z"/><g class="cls-19"><g class="cls-12"><path class="cls-11" d="M50.22,63.3,13.06,41.65A2.6,2.6,0,0,1,12,39.28a5.5,5.5,0,0,1,.12-1.13L49.25,59.8a6.27,6.27,0,0,0-.11,1.13A2.58,2.58,0,0,0,50.22,63.3Z"/><path class="cls-11" d="M49.25,59.8,12.1,38.15a7.68,7.68,0,0,1,.43-1.42L49.68,58.38A7.46,7.46,0,0,0,49.25,59.8Z"/><path class="cls-2" d="M49.68,58.38,12.53,36.73a8.59,8.59,0,0,1,.79-1.5L50.48,56.88A9.38,9.38,0,0,0,49.68,58.38Z"/><path class="cls-18" d="M50.48,56.88,13.32,35.23a7.18,7.18,0,0,1,2.36-2.33L52.84,54.55A7.18,7.18,0,0,0,50.48,56.88Z"/></g></g></g><path class="cls-20" d="M52.84,54.55c2-1.18,3.71-.22,3.72,2.12A8.11,8.11,0,0,1,52.87,63c-2.06,1.18-3.72.23-3.73-2.11A8.11,8.11,0,0,1,52.84,54.55Z"/></g><g class="cls-12"><g class="cls-12"><path class="cls-1" d="M55.48,55l4,2.34a2.33,2.33,0,0,0-2.34.23l-4-2.34A2.33,2.33,0,0,1,55.48,55Z"/><g class="cls-21"><g class="cls-12"><path class="cls-1" d="M57.18,57.53l-4-2.34c.09,0,4.13,2.3,4.13,2.3Z"/><path class="cls-1" d="M57.26,57.49l-4-2.35a3.16,3.16,0,0,1,1.12-.38l4,2.34A3.07,3.07,0,0,0,57.26,57.49Z"/><path class="cls-1" d="M58.38,57.1l-4-2.34a1.88,1.88,0,0,1,.86.07l4,2.34A1.87,1.87,0,0,0,58.38,57.1Z"/><path class="cls-1" d="M59.24,57.17l-4-2.34a1.43,1.43,0,0,1,.28.13l4,2.34Z"/></g></g></g><g class="cls-12"><path class="cls-1" d="M54.85,65.28l-4-2.35a2.29,2.29,0,0,1-1-2.09,7.21,7.21,0,0,1,3.28-5.65l4,2.34a7.19,7.19,0,0,0-3.29,5.65A2.31,2.31,0,0,0,54.85,65.28Z"/><g class="cls-22"><g class="cls-12"><path class="cls-1" d="M54.85,65.28l-4-2.35a2.29,2.29,0,0,1-1-2.09,5,5,0,0,1,.11-1l4,2.34a5,5,0,0,0-.11,1A2.31,2.31,0,0,0,54.85,65.28Z"/><path class="cls-1" d="M54,62.18l-4-2.34a6.41,6.41,0,0,1,.38-1.25l4,2.34A6.41,6.41,0,0,0,54,62.18Z"/><path class="cls-1" d="M54.38,60.93l-4-2.34a7.68,7.68,0,0,1,.7-1.33l4,2.34A8.44,8.44,0,0,0,54.38,60.93Z"/><path class="cls-23" d="M55.08,59.6l-4-2.34a6.54,6.54,0,0,1,2.09-2.07l4,2.34A6.47,6.47,0,0,0,55.08,59.6Z"/></g></g></g><path class="cls-24" d="M57.18,57.53c1.82-1.05,3.3-.21,3.3,1.87a7.17,7.17,0,0,1-3.28,5.65c-1.81,1-3.3.21-3.31-1.87A7.19,7.19,0,0,1,57.18,57.53Z"/></g><path class="cls-5" d="M16.67,43.77c.22.06.53,0,.49-.22-.07-.47-.43-.86-.44-1.33,0-.17.07-.36.23-.4s.36.13.47.3a6.38,6.38,0,0,0,.85,1.14,7.73,7.73,0,0,0,.85.66,2.71,2.71,0,0,1,.76.75,1.57,1.57,0,0,1,.17.88,4.45,4.45,0,0,0,.23.79,6.11,6.11,0,0,1,.12,1.2,1.29,1.29,0,0,1-.23.86c-.24.23-.59.08-.83-.07a7,7,0,0,1-.91-.89c-.15-.13-.24-.3-.38-.43a1.79,1.79,0,0,0-.63-.28A4.26,4.26,0,0,1,16.08,46a2.78,2.78,0,0,1-1-1.19,8.86,8.86,0,0,1-.29-1,1.9,1.9,0,0,1,0-1.18c.19-.5.38,0,.57.21a4.75,4.75,0,0,0,1.13.92A.38.38,0,0,0,16.67,43.77Z"/></g><path class="cls-5" d="M104.38,5.45c-.16.13,0,.39.12.47s1.42,0,1.45.34c0,.66-1.84,2.5-2.52,3-1.65,1.28-4.9,2.12-4.08.15a16.49,16.49,0,0,1,1.34-1.8,2.22,2.22,0,0,0,.22-.8c.16-1,.84-2.64,1.75-3,3.27-1.13,4,1.29,2.74,1.44C105.18,5.34,104.54,5.31,104.38,5.45Z"/><g class="cls-12"><g class="cls-12"><path class="cls-3" d="M104,1.91,106.85.27a2.82,2.82,0,0,1,2.84.28l-2.82,1.64A2.82,2.82,0,0,0,104,1.91Z"/><g class="cls-25"><g class="cls-12"><path class="cls-3" d="M104,1.91,106.85.27a2.62,2.62,0,0,1,2.46.08L106.49,2A2.6,2.6,0,0,0,104,1.91Z"/><path class="cls-3" d="M106.49,2,109.31.35a3.48,3.48,0,0,1,.38.2l-2.82,1.64A3.48,3.48,0,0,0,106.49,2Z"/></g></g></g><g class="cls-12"><path class="cls-4" d="M126.88,25l-2.82,1.64A2.78,2.78,0,0,0,125.22,24L128,22.39A2.78,2.78,0,0,1,126.88,25Z"/><g class="cls-26"><g class="cls-12"><path class="cls-4" d="M125.22,24,128,22.39A2.78,2.78,0,0,1,126.88,25l-2.82,1.64A2.78,2.78,0,0,0,125.22,24Z"/></g></g></g><polygon class="cls-4" points="125.24 17.38 128.06 15.74 128.04 22.39 125.22 24.03 125.24 17.38"/><polygon class="cls-3" points="106.87 2.19 109.69 0.55 124.09 8.87 121.27 10.5 106.87 2.19"/><g class="cls-12"><path class="cls-3" d="M121.27,10.5l2.82-1.64a8.73,8.73,0,0,1,4,6.88l-2.82,1.64A8.74,8.74,0,0,0,121.27,10.5Z"/><g class="cls-27"><g class="cls-12"><path class="cls-3" d="M121.27,10.5l2.82-1.64a8.79,8.79,0,0,1,3.54,4.54L124.81,15A8.79,8.79,0,0,0,121.27,10.5Z"/><path class="cls-28" d="M124.81,15l2.82-1.64a7.08,7.08,0,0,1,.43,2.34l-2.82,1.64A7,7,0,0,0,124.81,15Z"/></g></g></g><path class="cls-28" d="M121.27,10.5a8.74,8.74,0,0,1,4,6.88l0,6.65c0,2.53-1.79,3.55-4,2.28L106.82,18a8.74,8.74,0,0,1-4-6.88l0-6.64c0-2.53,1.79-3.56,4-2.28Z"/></g><path class="cls-9" d="M124.94,97.61a1,1,0,0,1-1-.71L103.44,34.47a1,1,0,0,1,2-.65l20.52,62.43a1,1,0,0,1-.67,1.31A.89.89,0,0,1,124.94,97.61Z"/><path class="cls-9" d="M131.25,78.28a1.1,1.1,0,0,1-.52-.14l-15.66-9a1,1,0,1,1,1.05-1.8l15.65,9a1,1,0,0,1-.52,1.94Z"/><path class="cls-9" d="M87.5,99.41a.84.84,0,0,1-.82-.64.86.86,0,0,1,.62-1c10.63-2.69,21-8.67,31.64-18.28a.84.84,0,0,1,1.2.06.85.85,0,0,1-.07,1.2c-10.87,9.79-21.45,15.9-32.36,18.67Z"/><path class="cls-9" d="M137.76,98.28a1.06,1.06,0,0,1-.51-.14l-15.66-9a1,1,0,0,1-.38-1.43,1,1,0,0,1,1.42-.38l15.66,9a1,1,0,0,1,.38,1.42A1.06,1.06,0,0,1,137.76,98.28Z"/><path class="cls-20" d="M103.35,33.73,80.29,120.94a1,1,0,0,0,2,.54l23-87.22a7.13,7.13,0,0,1,1.12-2.36,14.67,14.67,0,0,0-1.29-1.73A9.1,9.1,0,0,0,103.35,33.73Z"/><g class="cls-12"><polygon class="cls-29" points="105.23 111.86 105.22 112.94 97.09 117.76 97.09 116.68 105.23 111.86"/><polygon class="cls-30" points="97.09 116.68 97.09 117.76 81.3 108.46 81.3 107.38 97.09 116.68"/><polygon class="cls-31" points="105.23 111.86 97.09 116.68 81.3 107.38 89.43 102.56 105.23 111.86"/></g><g class="cls-12"><polygon class="cls-29" points="110.92 92.29 110.92 93.37 102.79 98.19 102.79 97.11 110.92 92.29"/><polygon class="cls-30" points="102.79 97.11 102.79 98.19 86.99 88.89 87 87.81 102.79 97.11"/><polygon class="cls-31" points="110.92 92.29 102.79 97.11 87 87.81 95.13 82.99 110.92 92.29"/></g><g class="cls-12"><polygon class="cls-29" points="115.6 72.72 115.59 73.8 107.46 78.62 107.46 77.54 115.6 72.72"/><polygon class="cls-30" points="107.46 77.54 107.46 78.62 91.67 69.32 91.67 68.24 107.46 77.54"/><polygon class="cls-31" points="115.6 72.72 107.46 77.54 91.67 68.24 99.8 63.42 115.6 72.72"/></g><g class="cls-12"><polygon class="cls-29" points="121.02 53.15 121.02 54.23 112.89 59.05 112.89 57.97 121.02 53.15"/><polygon class="cls-30" points="112.89 57.97 112.89 59.05 97.09 49.75 97.1 48.67 112.89 57.97"/><polygon class="cls-31" points="121.02 53.15 112.89 57.97 97.1 48.67 105.23 43.85 121.02 53.15"/></g><path class="cls-20" d="M103.63,109a.85.85,0,0,1-.21-1.67c10.63-2.7,21-8.68,31.65-18.29a.85.85,0,0,1,1.2.07.84.84,0,0,1-.07,1.19c-10.87,9.8-21.46,15.91-32.36,18.67A.76.76,0,0,1,103.63,109Z"/><path class="cls-20" d="M116.85,28.08a9.23,9.23,0,0,0-11.66,2.09,14.67,14.67,0,0,1,1.29,1.73,7.14,7.14,0,0,1,9.33-2A8.84,8.84,0,0,1,120,39.82l-5.75,21.73a13.17,13.17,0,0,1,1.9,1L122,40.35A10.94,10.94,0,0,0,116.85,28.08Z"/><path class="cls-20" d="M140.8,106.15a1,1,0,0,1-1-.72L119.3,43a1,1,0,1,1,2-.65l20.51,62.42a1,1,0,0,1-.66,1.32A1.26,1.26,0,0,1,140.8,106.15Z"/><g id="man"><g id="man-2" data-name="man"><path class="cls-9" d="M103.92,72.59c.22-.31.43-.14.73-.14a2.68,2.68,0,0,0,1.07-.3c.42-.19.81-.45,1.21-.68a9.85,9.85,0,0,1,3.38-1.17A3.16,3.16,0,0,1,113,71a1.48,1.48,0,0,1,.49.85,2.37,2.37,0,0,1-.12,1,3.28,3.28,0,0,1-.3.81,3.59,3.59,0,0,1-1.31,1.13,6.08,6.08,0,0,1-1.86.78,12.41,12.41,0,0,0-1.62.25,3.33,3.33,0,0,0-1,.51,2.54,2.54,0,0,1-.73.51,3.8,3.8,0,0,1-1.86.14,2,2,0,0,1-1.65-2.47,6,6,0,0,1,.52-1.26C103.75,72.94,103.83,72.74,103.92,72.59Z"/></g><g id="man-3" data-name="man"><path class="cls-9" d="M90.76,86.37c.14-.35.39-.24.68-.3a2.45,2.45,0,0,0,1-.52c.37-.28.69-.62,1-.93a10.1,10.1,0,0,1,3-1.88,3.17,3.17,0,0,1,2.24-.23,2.24,2.24,0,0,1,1.07.8,1.83,1.83,0,0,1,.26,1.19,2.79,2.79,0,0,1-.12.86,3.51,3.51,0,0,1-1,1.38,6,6,0,0,1-1.63,1.17,15.8,15.8,0,0,0-1.54.59,3.36,3.36,0,0,0-.83.72c-.2.22-.35.51-.61.65a3.63,3.63,0,0,1-1.78.54,2,2,0,0,1-2.15-2.06A7.56,7.56,0,0,1,90.6,87C90.67,86.75,90.7,86.53,90.76,86.37Z"/></g><path class="cls-7" d="M97.64,53.26a.68.68,0,0,0-.56-.8c-1.41-.44-2.85-.9-4.29-1.25a12.06,12.06,0,0,0-2.58-.36l-1.89-1.7a19.42,19.42,0,0,0-.18,4.93c.41,3.57,1.35,11.81,1.59,15.74.17,2.66.17,5.33.19,8s.22,5.22.41,7.82a2.5,2.5,0,0,0,.53,1.64,2.92,2.92,0,0,0,1.65.75,3.24,3.24,0,0,0,2.6-.91c.43-.43.41-1.26.48-1.82s.09-1,.1-1.55c.06-1.48.06-3,.11-4.45s.14-3.13.24-4.7c.08-1,.16-2,.25-3.07,0-.57.1-1.14.16-1.7.16-1.59.42-3.18.57-4.79q.44-4.53.56-9.07c0-.76,0-1.52,0-2.27C97.63,53.54,97.63,53.39,97.64,53.26Z"/><path class="cls-32" d="M97.42,44.75c-1.34,0-2.76,3-3.53,3.83s-1.47,1.53-2.24,2.27a7.41,7.41,0,0,1-1.12,1c-.35.21-2.12-2.33-2.48-2.12s-.76,3.72,1.44,5.09c3.85,2.4,8.62,2.58,12.34,5.16,1.56,1.08,2.85,2.51,4.31,3.73a2.33,2.33,0,0,0,.59.39,2.22,2.22,0,0,0,1.2,0c1.44-.28,1-1.06,1.38-2.61.27-1.17,2.13-1.33,1.87-2.51-.38-1.72-.41-1.94-1.26-2.79-3.26-3.22-7.82-7.53-11.12-10.74a2.61,2.61,0,0,0-1.13-.76A1.07,1.07,0,0,0,97.42,44.75Z"/><path class="cls-33" d="M104.67,32.1c0,.42,0,1.24-.45,1.52s-1.08.14-1.46.18c-1.21.11-2.42.19-3.63.27-.55,0-1.1.07-1.65.09a24.53,24.53,0,0,1-4.77-.32,4.88,4.88,0,0,1-2.1-.65,1.8,1.8,0,0,1-.44-1.69A3.21,3.21,0,0,1,92,28.78a6.17,6.17,0,0,1,3.27-.12,58.85,58.85,0,0,1,7.46,1.45,3.4,3.4,0,0,1,1.23.5A2,2,0,0,1,104.67,32.1Z"/><path class="cls-34" d="M125.84,17.63c-.24.06-.58,0-.53-.25.07-.51.47-.94.48-1.46a.43.43,0,0,0-.26-.44c-.21-.06-.39.15-.5.33a7.33,7.33,0,0,1-.93,1.26,10.4,10.4,0,0,1-.93.71,3.12,3.12,0,0,0-.83.83,1.7,1.7,0,0,0-.19,1,5.81,5.81,0,0,1-.25.88,7.18,7.18,0,0,0-.13,1.31,1.39,1.39,0,0,0,.26.95c.26.25.64.08.9-.09a7.56,7.56,0,0,0,1-1c.17-.15.26-.33.42-.47a1.88,1.88,0,0,1,.69-.31,4.84,4.84,0,0,0,1.46-.8,3,3,0,0,0,1-1.3,9.2,9.2,0,0,0,.32-1.14,2.14,2.14,0,0,0,0-1.3c-.21-.55-.41,0-.62.23a5.39,5.39,0,0,1-1.23,1Z"/><path class="cls-15" d="M101.78,8.51a1.67,1.67,0,0,1-.32,2.49,21.15,21.15,0,0,0-2.57,2.93A37.21,37.21,0,0,0,93.1,25.29c-.35,1.11-.52,2.68-1.73,3.24-2,.94-5.88,1.6-4.48-3.29a42.29,42.29,0,0,1,2.7-7.51,16.94,16.94,0,0,1,2.17-3.32,15.61,15.61,0,0,1,2.85-2.72c1.63-1.13,3.23-2.34,4.94-3.34C100.09,8,100.65,7.19,101.78,8.51Z"/><path class="cls-15" d="M95.26,54a17.53,17.53,0,0,0,4.54-.75,7,7,0,0,0,2.88-1.47c1.87-1.77.9-5.15.85-7.42a68.37,68.37,0,0,1,.3-8.22,48.52,48.52,0,0,0,.42-5.39V30.6a3.68,3.68,0,0,0-.4-2,4.71,4.71,0,0,0-1.48-1.08,26.78,26.78,0,0,0-5.29-2.6c-2.83-1-5.71-3.09-8.72-1.39a4.62,4.62,0,0,0-.85.62c-1.64,1.6-1.39,4.26-1.08,6.32.21,1.37.52,2.73.83,4.08a23.32,23.32,0,0,1,.8,4.11c.08,2.35,0,4.71-.17,7.05-.08,1.21-.13,2.44-.28,3.64a2.89,2.89,0,0,0,.72,2.55,5.47,5.47,0,0,0,2,1.26A12.44,12.44,0,0,0,95.26,54Z"/><path class="cls-15" d="M123.89,20.13a2.33,2.33,0,0,0-.81-.69,2,2,0,0,0-1.24-.08,5,5,0,0,0-1.17.49c-.88.49-1.7,1.09-2.57,1.6s-1.85,1.12-2.77,1.68a25.27,25.27,0,0,1-6.42,2.78c-2.52.74-5.17,1-7.57,2.08-1.41.64-1.87,2.54-1.74,4a2.81,2.81,0,0,0,.87,1.88,3.17,3.17,0,0,0,2.46.67,12.67,12.67,0,0,0,2.51-.75c6.41-2.12,10.86-4.2,15.08-8.11q.58-.54,1.14-1.11c.57-.56,1.14-1.12,1.7-1.69s1.15-1,1.13-1.62a1.52,1.52,0,0,0-.4-.88C124,20.31,124,20.22,123.89,20.13Z"/><path class="cls-5" d="M97.82,22.45c.11-.74.67-.57.39-1.24a3.57,3.57,0,0,0-1.11-1.49,2.6,2.6,0,0,0-1.73-.57c-.22,0-.36.13-.57.13a13.07,13.07,0,0,0-1.77,0c-.58.08-1.12.13-1.12.78a8.09,8.09,0,0,1-.24,2.59A6.19,6.19,0,0,0,91.25,24a2.45,2.45,0,0,0,1.47,2.25,5.8,5.8,0,0,0,3.37.3c.57-.08,1.36-.2,1.69-.73a2.17,2.17,0,0,0,.09-1.38A7.51,7.51,0,0,1,97.82,22.45Z"/><path class="cls-5" d="M100.32,12.91a3.07,3.07,0,0,1,.72,1.48c.19,1.27-.32,2.57-.05,3.83s-.25,4-2.65,4.69A8.53,8.53,0,0,1,94,22.48,6.24,6.24,0,0,1,91.62,20C86.61,12.05,96.92,8.77,100.32,12.91Z"/><path class="cls-20" d="M90.16,11.35a3,3,0,0,1,.9-.64.89.89,0,0,0,.31-.19,1.79,1.79,0,0,0,.12-.24,1.87,1.87,0,0,1,.87-.82,7.13,7.13,0,0,1,4.47-.57,6.23,6.23,0,0,1,1.5.38,5.26,5.26,0,0,1,1.46,1,5.86,5.86,0,0,1,1.51,2,10.65,10.65,0,0,1,.29,1.11.91.91,0,0,1-.3.93c-.12.09-.26.15-.38.24-.51.34-.61,1.13-.83,1.67-.14.34-.41.52-.49.89a10.87,10.87,0,0,1-.2,1.14c0,.18-.17.37-.35.38a.4.4,0,0,1-.22-.06,1.11,1.11,0,0,1-.4-.63,2.61,2.61,0,0,0-.25-.71.14.14,0,0,0-.08-.07H98a.9.9,0,0,0-.55.46,3.65,3.65,0,0,0-.3.86,8.17,8.17,0,0,0-.2,1.3,2.39,2.39,0,0,1-.51,1.31c-.73.78-2.13.74-3.08.53a5.13,5.13,0,0,1-1-.31,4.78,4.78,0,0,1-1.69-1.71,6.92,6.92,0,0,1-1.08-1.93,6.37,6.37,0,0,1-.24-1.23C89.1,14.76,88.93,12.61,90.16,11.35Z"/><path class="cls-5" d="M97.61,16.4c-1-.2-1.36,1-.84,2a4.78,4.78,0,0,0,.67.83c1.49,1.7,2.15.19,1.68-.38C98,17.47,98.79,16.66,97.61,16.4Z"/><path class="cls-10" d="M97.63,18.24c-.1-.11-1.09-.92-.28-1.24.22-.09.42.12.42.34s0,.23,0,.34a.65.65,0,0,0,0,.2c.08.17.38.37.29.59S97.68,18.31,97.63,18.24Z"/><path class="cls-32" d="M111.6,62.35l-.06.15c-.92,2.39-1.58,4.85-2.38,7.27-.53,1.61-1.7,6-3.58,6-.92,0-2.67-.39-2.88-1.23-.8-3.16,1.93-12.31,2.72-14.89.2-.65.2-.38.38-1a5.33,5.33,0,0,1,.52-1.77c.66-.83,0-3.43.67-3a44.74,44.74,0,0,1,5,4.46C112.71,59.22,111.94,61.49,111.6,62.35Z"/></g><path class="cls-20" d="M96.13,130a1,1,0,0,0,.74,1.27l.27,0a1,1,0,0,0,1-.77l18-68a13.17,13.17,0,0,0-1.9-1Z"/></g></g></svg>