<svg xmlns="http://www.w3.org/2000/svg" viewBox="0 0 255.92 147.54"><defs><style>.cls-1{fill:#effbff;}.cls-2{fill:#192e3f;}.cls-3{fill:#00c7e9;}.cls-4{fill:#ff3580;}.cls-5{fill:#ffd200;}.cls-6{fill:#ffd888;}</style></defs><title>Designer_table</title><g id="Layer_2" data-name="Layer 2"><g id="Hành_tinh_Designer" data-name="Hành tinh Designer"><polygon class="cls-1" points="95.92 32.3 95.21 31.59 125.65 1.15 155.99 31.5 155.29 32.2 125.65 2.56 95.92 32.3"/><rect class="cls-2" x="91.61" y="29.81" width="67.08" height="117.74"/><rect class="cls-1" x="100.35" y="38.83" width="49.6" height="99.69"/><rect class="cls-3" x="104.66" y="43.66" width="40.39" height="18.96"/><rect class="cls-4" x="104.66" y="66.04" width="40.39" height="18.96"/><rect class="cls-5" x="104.66" y="90.49" width="40.39" height="18.96"/><rect class="cls-2" x="104.66" y="114.63" width="40.39" height="18.96"/><circle class="cls-2" cx="125.6" cy="1.28" r="1.28"/><circle class="cls-6" cx="125.6" cy="1.28" r="0.65"/><polygon class="cls-1" points="3.17 89.56 2.46 88.85 24.23 67.08 45.93 88.78 45.23 89.49 24.23 68.5 3.17 89.56"/><rect class="cls-2" y="87.69" width="47.75" height="50.76"/><rect class="cls-1" x="6.22" y="94.11" width="35.3" height="37.92"/><rect class="cls-3" x="8.82" y="97.94" width="7.55" height="7.47"/><rect class="cls-4" x="16.3" y="105.42" width="7.55" height="7.47"/><rect class="cls-5" x="23.81" y="112.93" width="7.55" height="7.47"/><rect class="cls-2" x="31.32" y="120.44" width="7.55" height="7.47"/><circle class="cls-2" cx="24.2" cy="67.38" r="0.91"/><circle class="cls-6" cx="24.2" cy="67.38" r="0.46"/><polygon class="cls-1" points="211.34 91.56 210.64 90.85 232.4 69.08 254.11 90.78 253.4 91.49 232.4 70.5 211.34 91.56"/><rect class="cls-2" x="208.17" y="89.69" width="47.75" height="50.76"/><rect class="cls-1" x="214.4" y="96.11" width="35.3" height="37.92"/><rect class="cls-3" x="217.46" y="100.69" width="28.75" height="28.47"/><rect class="cls-4" x="222.74" y="105.92" width="18.19" height="18.01"/><rect class="cls-5" x="229.31" y="112.42" width="5.05" height="5"/><circle class="cls-2" cx="232.37" cy="69.38" r="0.91"/><circle class="cls-6" cx="232.37" cy="69.38" r="0.46"/></g></g></svg>