<svg xmlns="http://www.w3.org/2000/svg" viewBox="0 0 260.13 140.51"><defs><style>.cls-1{fill:#9dd3ff;}.cls-2{fill:#5e9af2;}.cls-3{fill:#f0f8ff;}.cls-4{fill:#ff7469;}.cls-5{fill:#97c7fa;}.cls-6{fill:#ff7a70;}.cls-7{fill:#2e49d2;}.cls-8{fill:#5f89d3;}</style></defs><title>Marketing_graph</title><g id="Layer_2" data-name="Layer 2"><g id="Hành_tinh_Marketing_Executive" data-name="Hành tinh Marketing Executive"><rect class="cls-1" x="192.03" y="17.78" width="68.09" height="114.41" transform="translate(452.16 149.98) rotate(180)"/><rect class="cls-2" x="189.9" y="17.78" width="68.09" height="114.41"/><rect class="cls-3" x="194.54" y="24.17" width="58.98" height="39.85"/><rect class="cls-3" x="220.85" y="101.42" width="31.65" height="21.28"/><path class="cls-4" d="M197,44.51s10.07-1.25,16.22,4.42,17.62.5,22.24,0c8-.88,14.31,1.75,16.18,4.64v8.65H197Z"/><rect class="cls-5" x="204.78" y="30.58" width="0.42" height="13.52"/><rect class="cls-5" x="221.34" y="36.38" width="0.42" height="13.52"/><rect class="cls-5" x="238.42" y="33.32" width="0.42" height="13.52"/><path class="cls-5" d="M209.91,32.65h-3.24a.35.35,0,0,1-.35-.35h0a.35.35,0,0,1,.35-.35h3.24a.35.35,0,0,1,.35.35h0A.35.35,0,0,1,209.91,32.65Z"/><path class="cls-5" d="M209.91,33.92h-3.24a.35.35,0,0,1-.35-.35h0a.35.35,0,0,1,.35-.35h3.24a.35.35,0,0,1,.35.35h0A.35.35,0,0,1,209.91,33.92Z"/><path class="cls-5" d="M226.22,39.55H223a.35.35,0,0,1-.35-.36h0a.35.35,0,0,1,.35-.35h3.23a.35.35,0,0,1,.35.35h0A.35.35,0,0,1,226.22,39.55Z"/><path class="cls-5" d="M226.22,40.79H223a.35.35,0,0,1-.35-.36h0a.35.35,0,0,1,.35-.35h3.23a.35.35,0,0,1,.35.35h0A.35.35,0,0,1,226.22,40.79Z"/><path class="cls-5" d="M243.59,34.45h-3.23a.35.35,0,0,1-.35-.35h0a.35.35,0,0,1,.35-.36h3.23a.35.35,0,0,1,.35.36h0A.35.35,0,0,1,243.59,34.45Z"/><path class="cls-5" d="M243.59,35.69h-3.23a.35.35,0,0,1-.35-.35h0a.35.35,0,0,1,.35-.36h3.23a.35.35,0,0,1,.35.36h0A.35.35,0,0,1,243.59,35.69Z"/><circle class="cls-3" cx="247.69" cy="74.22" r="5.82" transform="translate(134.76 306.83) rotate(-80.78)"/><path class="cls-4" d="M253,74.22a5.33,5.33,0,0,1-8.93,3.93l3.6-3.93V68.89A5.33,5.33,0,0,1,253,74.22Z"/><path class="cls-5" d="M245.66,73.28h-1.91a.16.16,0,0,1-.16-.16h0a.16.16,0,0,1,.16-.16h1.91a.17.17,0,0,1,.17.16h0A.17.17,0,0,1,245.66,73.28Z"/><path class="cls-3" d="M227.41,74.22A5.83,5.83,0,1,1,233.24,80,5.82,5.82,0,0,1,227.41,74.22Z"/><path class="cls-6" d="M233.24,74.22l3.27,4.2a5.27,5.27,0,0,1-3.27,1.13,5.33,5.33,0,1,1,5.3-5.82Z"/><path class="cls-5" d="M237.34,75.54H236a.16.16,0,0,1-.16-.16h0a.16.16,0,0,1,.16-.16h1.33a.16.16,0,0,1,.16.16h0A.16.16,0,0,1,237.34,75.54Z"/><path class="cls-3" d="M241.87,90.26a5.83,5.83,0,1,1,5.82,5.82A5.82,5.82,0,0,1,241.87,90.26Z"/><path class="cls-4" d="M253,90.26a5.33,5.33,0,0,1-8.93,3.93l3.6-3.93V84.93A5.32,5.32,0,0,1,253,90.26Z"/><path class="cls-5" d="M245.66,89.32h-1.91a.16.16,0,0,1-.16-.16h0a.16.16,0,0,1,.16-.16h1.91a.17.17,0,0,1,.17.16h0A.17.17,0,0,1,245.66,89.32Z"/><path class="cls-3" d="M227.41,90.26a5.83,5.83,0,1,1,5.83,5.82A5.82,5.82,0,0,1,227.41,90.26Z"/><path class="cls-4" d="M238.54,89.77a5.34,5.34,0,1,0-2,4.69l-3.27-4.2Z"/><path class="cls-5" d="M237.34,91.58H236a.16.16,0,0,1-.16-.16h0a.16.16,0,0,1,.16-.16h1.33a.16.16,0,0,1,.16.16h0A.16.16,0,0,1,237.34,91.58Z"/><polygon class="cls-5" points="251.14 121.21 222.08 121.21 222.08 104.04 222.44 104.04 222.44 120.85 251.14 120.85 251.14 121.21"/><path class="cls-5" d="M231.16,115c-3.55-2.83-7.33,0-7.33,0v4.84h26.59V107.33C243.19,107.51,234.72,117.83,231.16,115Z"/><path class="cls-5" d="M224.13,105.35h12.39a.29.29,0,0,0,.3-.3.3.3,0,0,0-.3-.31H224.13a.3.3,0,0,0-.3.31A.29.29,0,0,0,224.13,105.35Z"/><path class="cls-5" d="M224.13,106.84h12.39a.31.31,0,0,0,0-.61H224.13a.31.31,0,0,0,0,.61Z"/><rect class="cls-5" x="223.83" y="107.64" width="8.7" height="0.61" rx="0.25"/><rect class="cls-2" x="85.46" width="93.17" height="140.51"/><rect class="cls-3" x="94.47" y="7.86" width="75.01" height="83.61"/><path class="cls-3" d="M96.06,118.18a13.49,13.49,0,1,1,13.49,13.49A13.49,13.49,0,0,1,96.06,118.18Z"/><path class="cls-4" d="M121,118.18a11.4,11.4,0,1,0-4.48,9.07l-6.92-9.07,10.66,4.07A11.4,11.4,0,0,0,121,118.18Z"/><path class="cls-3" d="M142,118.18a13.5,13.5,0,1,1,13.5,13.49A13.49,13.49,0,0,1,142,118.18Z"/><path class="cls-4" d="M155.52,106.78a11.4,11.4,0,0,0-8.13,19.4l8.13-8,10.65,4.07a11.4,11.4,0,0,0-10.65-15.47Z"/><path class="cls-5" d="M153.85,112.39H149a.35.35,0,0,0-.34.35h0a.35.35,0,0,0,.34.35h4.86a.35.35,0,0,0,.35-.35h0A.35.35,0,0,0,153.85,112.39Z"/><path class="cls-5" d="M153.85,113.49H149a.35.35,0,0,0,0,.7h4.86a.35.35,0,1,0,0-.7Z"/><path class="cls-5" d="M151,114.59h-2a.35.35,0,0,0-.34.35.34.34,0,0,0,.34.34h2a.35.35,0,0,0,.35-.34A.35.35,0,0,0,151,114.59Z"/><path class="cls-5" d="M107.79,112.39h-4.85a.35.35,0,0,0-.35.35h0a.35.35,0,0,0,.35.35h4.85a.35.35,0,0,0,.35-.35h0A.35.35,0,0,0,107.79,112.39Z"/><path class="cls-5" d="M107.79,113.49h-4.85a.35.35,0,0,0,0,.7h4.85a.35.35,0,0,0,0-.7Z"/><path class="cls-5" d="M104.94,114.59h-2a.35.35,0,0,0-.35.35.35.35,0,0,0,.35.34h2a.35.35,0,0,0,.35-.34A.35.35,0,0,0,104.94,114.59Z"/><rect class="cls-5" x="101.14" y="37.74" width="7.92" height="49.31"/><rect class="cls-5" x="114.11" y="24" width="7.92" height="63.05"/><rect class="cls-5" x="128.26" y="49.67" width="7.92" height="37.39"/><rect class="cls-5" x="142.03" y="32.41" width="7.92" height="54.64"/><rect class="cls-5" x="155.87" y="56.98" width="7.92" height="30.07"/><path class="cls-5" d="M149.57,25.31h-6.7a.69.69,0,1,0,0,1.38h6.7a.69.69,0,1,0,0-1.38Z"/><path class="cls-5" d="M144.4,27.83h-1.53a.69.69,0,0,0-.69.69.7.7,0,0,0,.69.7h1.53a.7.7,0,0,0,.69-.7A.69.69,0,0,0,144.4,27.83Z"/><path class="cls-5" d="M122,14.57h-6.7a.69.69,0,1,0,0,1.38H122a.69.69,0,0,0,0-1.38Z"/><path class="cls-5" d="M116.77,17.09h-1.52a.69.69,0,0,0-.7.69h0a.7.7,0,0,0,.7.7h1.52a.71.71,0,0,0,.7-.7h0A.7.7,0,0,0,116.77,17.09Z"/><path class="cls-5" d="M135.57,42.31h-6.7a.69.69,0,0,0,0,1.38h6.7a.69.69,0,1,0,0-1.38Z"/><path class="cls-5" d="M130.4,44.83h-1.53a.69.69,0,0,0-.69.69h0a.7.7,0,0,0,.69.7h1.53a.7.7,0,0,0,.69-.7h0A.69.69,0,0,0,130.4,44.83Z"/><path class="cls-5" d="M163.18,49.67h-6.7a.69.69,0,0,0,0,1.38h6.7a.69.69,0,1,0,0-1.38Z"/><path class="cls-5" d="M158,52.19h-1.53a.69.69,0,0,0-.69.69.7.7,0,0,0,.69.7H158a.7.7,0,0,0,.69-.7A.69.69,0,0,0,158,52.19Z"/><rect class="cls-1" x="4.8" y="53.26" width="68.09" height="38.34"/><rect class="cls-2" x="7.01" y="53.26" width="68.09" height="38.34"/><circle class="cls-3" cx="25.63" cy="71.56" r="12.31" transform="translate(-43.09 39.09) rotate(-45)"/><path class="cls-3" d="M67.45,64.69H47.05A1.34,1.34,0,0,0,45.71,66h0a1.34,1.34,0,0,0,1.34,1.34h20.4A1.34,1.34,0,0,0,68.79,66h0A1.34,1.34,0,0,0,67.45,64.69Z"/><path class="cls-3" d="M67.45,70.22H47.05a1.34,1.34,0,0,0-1.34,1.34h0a1.35,1.35,0,0,0,1.34,1.35h20.4a1.35,1.35,0,0,0,1.34-1.35h0A1.34,1.34,0,0,0,67.45,70.22Z"/><path class="cls-3" d="M67.45,75.75H47.05a1.35,1.35,0,0,0,0,2.69h20.4a1.35,1.35,0,0,0,0-2.69Z"/><path class="cls-7" d="M14.36,71.38H25.63V60.11A11.28,11.28,0,0,0,14.36,71.38Z"/><path class="cls-7" d="M36.91,71.75H14.36A11.28,11.28,0,0,0,25.63,83h0A11.28,11.28,0,0,0,36.91,71.75Z"/><path class="cls-8" d="M23.69,65.59H17.57a.63.63,0,0,0,0,1.26h6.12a.63.63,0,1,0,0-1.26Z"/><path class="cls-8" d="M19,67.89H17.57a.64.64,0,0,0,0,1.27H19a.64.64,0,0,0,0-1.27Z"/><path class="cls-5" d="M32.77,74.5H26.65a.64.64,0,0,0,0,1.27h6.12a.64.64,0,0,0,0-1.27Z"/><path class="cls-5" d="M28,76.81H26.65a.63.63,0,0,0-.63.63h0a.63.63,0,0,0,.63.63H28a.64.64,0,0,0,.64-.63h0A.64.64,0,0,0,28,76.81Z"/><path class="cls-1" d="M0,98.46v39.21H68.09V98.46Z"/><path class="cls-2" d="M2.21,98.46v39.21h68.1V98.46Z"/><circle class="cls-3" cx="20.84" cy="116.85" r="12.31" transform="translate(-93.14 83.73) rotate(-63.68)"/><path class="cls-3" d="M42.26,112.66H62.65a1.34,1.34,0,1,0,0-2.68H42.26a1.34,1.34,0,1,0,0,2.68Z"/><path class="cls-3" d="M62.65,115.51H42.26a1.35,1.35,0,1,0,0,2.69H62.65a1.35,1.35,0,1,0,0-2.69Z"/><path class="cls-3" d="M62.65,121H42.26a1.36,1.36,0,0,0-1.35,1.35h0a1.35,1.35,0,0,0,1.35,1.34H62.65A1.35,1.35,0,0,0,64,122.39h0A1.36,1.36,0,0,0,62.65,121Z"/><path class="cls-7" d="M20.84,117.05l-11.28-.14v.14a11.28,11.28,0,0,0,17.33,9.52Z"/><rect class="cls-5" x="14.5" y="120.6" width="7.38" height="1.27" rx="0.63"/><path class="cls-5" d="M16.53,122.91h-1.4a.63.63,0,0,0,0,1.26h1.4a.63.63,0,1,0,0-1.26Z"/><rect class="cls-1" y="11.45" width="68.1" height="35.53"/><rect class="cls-2" x="2.21" y="11.45" width="68.09" height="35.53"/><circle class="cls-3" cx="20.84" cy="29.74" r="12.31" transform="translate(-8.08 7.78) rotate(-17.77)"/><path class="cls-7" d="M20.84,18.47a11.27,11.27,0,0,0-5.41,21.16c1.8-3.35,5.41-9.89,5.41-9.89l5.33,9.93a11.27,11.27,0,0,0-5.33-21.2Z"/><rect class="cls-3" x="40.91" y="22.86" width="23.08" height="2.69" rx="1.34"/><path class="cls-3" d="M62.65,28.39H42.26a1.35,1.35,0,1,0,0,2.69H62.65a1.35,1.35,0,1,0,0-2.69Z"/><path class="cls-3" d="M62.65,33.93H42.26a1.35,1.35,0,1,0,0,2.69H62.65a1.35,1.35,0,1,0,0-2.69Z"/><path class="cls-8" d="M21.25,24.35H15.13a.64.64,0,0,0-.63.64.63.63,0,0,0,.63.63h6.12a.63.63,0,0,0,.63-.63A.64.64,0,0,0,21.25,24.35Z"/><path class="cls-8" d="M16.53,26.66h-1.4a.63.63,0,0,0-.63.63h0a.63.63,0,0,0,.63.63h1.4a.63.63,0,0,0,.63-.63h0A.63.63,0,0,0,16.53,26.66Z"/></g></g></svg>