<svg xmlns="http://www.w3.org/2000/svg" viewBox="0 0 244.45 103.25"><defs><style>.cls-1{fill:#ff5549;}.cls-2{fill:#003261;}.cls-3{fill:#00448c;}.cls-4{fill:#ff9490;}.cls-5{fill:#ff7469;}.cls-6{fill:#ffa668;}.cls-7{fill:#ff7a70;}.cls-8{fill:#ff8585;}.cls-9{fill:#e3f0fd;}.cls-10{fill:#e05344;}.cls-11{fill:#2e49d2;}.cls-12{fill:#2776ce;}</style></defs><title>Marketing_human</title><g id="Layer_2" data-name="Layer 2"><g id="Hành_tinh_Marketing_Executive" data-name="Hành tinh Marketing Executive"><path class="cls-1" d="M141.3,13.75s7.94,8.2,8.33,11.3S145.85,33,145.85,33Z"/><path class="cls-2" d="M137.91,98.82s-.27,4.36-1.12,4.42h-4.28l-5.31,0a1.72,1.72,0,0,1,1.59-1.55c1.55-.28,4.15-1.37,5.09-3.42S137.91,98.82,137.91,98.82Z"/><path class="cls-2" d="M149.75,98.82s-.27,4.36-1.11,4.42h-4.28l-5.34,0a1.77,1.77,0,0,1,1.61-1.56c1.55-.28,4.16-1.37,5.1-3.42S149.75,98.82,149.75,98.82Z"/><path class="cls-2" d="M132,52.07s1.39,8.9,6.58,24.69,5.89,22.62,5.89,22.62a23.19,23.19,0,0,0,2.89.2,18.43,18.43,0,0,0,2.68-.36S150.1,82,147.71,74s-.51-28.62-.51-28.62Z"/><path class="cls-3" d="M129.31,45.89a215.42,215.42,0,0,0,2.12,29.86C133.75,92.21,133,99.2,133,99.2s1.91.34,2.58.36,3-.18,3-.18,3.32-16.46,2.37-24.7,4.54-28.26,4.54-28.26Z"/><path class="cls-4" d="M140.06,14.53l-2.62,1.94-3.78-.8c.05-.34.3-1.77.53-3.07a1.85,1.85,0,0,1,0-.23c.19-1.1.36-2,.36-2l3.53-1.76,1.32-.66s-.1,1.23-.11,1.4A11.3,11.3,0,0,0,140.06,14.53Z"/><path class="cls-1" d="M133.92,13.55c.08,0,5.15-1.53,5.7-1.35s.88,1.25.88,1.25l-8.29,1.87A4.12,4.12,0,0,1,133.92,13.55Z"/><path class="cls-5" d="M147.56,47.55c-.85,3.92-15.15,4.38-18.83.83-.42-.41-.44-2.3-.28-4.84.3-5,1.3-12.44,1.34-16.26a29.23,29.23,0,0,1,.61-5.44,43.49,43.49,0,0,1,1.81-6.52s7-2.25,8.29-1.87C146.79,15.3,148.42,43.63,147.56,47.55Z"/><path class="cls-1" d="M128.45,43.54c.3-5,1.3-12.44,1.34-16.26a29.23,29.23,0,0,1,.61-5.44l4.2-.74S138.7,37.87,128.45,43.54Z"/><path class="cls-4" d="M130.72,36.62a1,1,0,0,1-.32,1.14,1.91,1.91,0,0,0-.85,1.75c.14.54,1.46,1.43,1.91,1.29s1.39-.86,1.29-1.15.63-2.52-.49-3.38A.9.9,0,0,0,130.72,36.62Z"/><path class="cls-5" d="M135.42,14.32s-4.1.76-7.36,5.57-5.41,8.39-4.81,10.12,6.08,7.75,7,7.75a2.54,2.54,0,0,0,2.56-2.24s-3.86-5.78-3.1-6.64c.32-.37,5-4.18,5.68-2.46C136.51,29.26,135.42,14.32,135.42,14.32Z"/><path class="cls-6" d="M139.06,9.36c-.77,1.48-3.67,2.77-4.87,3.24a1.85,1.85,0,0,1,0-.23c.19-1.1.36-2,.36-2l3.53-1.76C138.91,8.55,139.38,8.75,139.06,9.36Z"/><path class="cls-4" d="M133.45,10.4s5.23,1.64,6.2-1.64,2.29-5.27-1-6.45-4.32-.12-4.91.89S132.11,9.89,133.45,10.4Z"/><path class="cls-2" d="M133.94,2.88s.33,3.82,1.12,3.65,1.5-.29,1.39.86-1.21,2.48,1.22,2.68,5.92-6.06,5.25-7.25C141-.6,131.15-1.29,133.94,2.88Z"/><polygon class="cls-4" points="13.37 91.45 14.97 98.17 17.35 98.15 17.44 91.45 13.37 91.45"/><polygon class="cls-4" points="33.45 91.74 37.99 98.17 39.75 95.9 37.02 90.86 33.45 91.74"/><path class="cls-2" d="M21.66,3.26a4.61,4.61,0,0,0-2.5-.48,1.23,1.23,0,0,1,.53-.25,4,4,0,0,0-1.39.36c-6-2.3-6.89,6.48-6.76,8.51s-2,2.71-5.11,4.31C.52,18.78,0,22.88,0,22.88L.15,23c.29-.49.89-1.43,1.4-1.57,0,.05-.6,1.29-.82,2,1.75,1.33,5,4.27,7.29,6.35a3.32,3.32,0,0,1,.15-1.29l.28,1.69c1.22,1.12,2.06,1.91,2.06,1.91C10.36,30.41,18,21.72,21.92,19.12A11.49,11.49,0,0,0,23.26,15a10.63,10.63,0,0,1-.82,3.73C25.8,15.63,23.85,4.5,21.66,3.26Z"/><path class="cls-4" d="M21.69,19.25a5.49,5.49,0,0,1-3.37.61,4.43,4.43,0,0,1-2.25-2.15c.58-.11.75-.91.74-4.33l.26,0,4.41.87s-.1,1.39-.11,2.69C21.37,18.09,21.44,19.13,21.69,19.25Z"/><path class="cls-7" d="M16.71,4.69a3.52,3.52,0,0,1,4.9-.11A18.93,18.93,0,0,0,16.71,4.69Z"/><path class="cls-8" d="M21.48,14.3s-.1,1.39-.11,2.69c-2.46-.07-3.76-2.31-4.3-3.56Z"/><path class="cls-2" d="M16.62,13A12.85,12.85,0,0,1,15,9.16c-.22-1.24.42-5.86,5.06-5.2a6.38,6.38,0,0,1,2.61,1c1,.68,2.47,2.15.84,6.18l-.42,1.36Z"/><path class="cls-5" d="M39,94.14l-2.33.07-2.53.07a49.7,49.7,0,0,1-9.11-16.91l-.24-.74C23,71.4,19.31,64.84,17.35,58.91c-.31-.95-.59-1.84-.84-2.68l-.24-.8A62.61,62.61,0,0,1,14,43.61l14.14.11A263.64,263.64,0,0,0,39,94.14Z"/><path class="cls-9" d="M26.19,35.6c0,6.73,1,9.62,1,9.62A19,19,0,0,1,13.93,46L8,44.66c.12-.27,1.19-4.81,1.31-5.06,1.52-3.26,2.67-4.69,2.85-5.69a21.39,21.39,0,0,0,.18-5.64,45.18,45.18,0,0,0-1.75-8.85,47.9,47.9,0,0,0,5.89-2,4.42,4.42,0,0,0,3.1,1.14c1.43,0,1.88-.63,1.82-1.32,1.53.85,2.75,1.66,2.75,1.66,1.29,2.26,3.93,4.45,4.12,7.9C28.28,27.68,26.19,35.41,26.19,35.6Z"/><path class="cls-1" d="M14,36.35c-.62.88-1.8,6.19-4.75,6.86,1.52-3.79,2.67-5.45,2.85-6.61a28.82,28.82,0,0,0,.18-6.55c1-1.73,1.72-2.92,1.72-2.92.08-.28,1.57-4.89,2-.77A19.12,19.12,0,0,1,14,36.35Z"/><path class="cls-4" d="M22.3,15.54s-5.83.09-5.84-3.54-.76-6.07,3-6.28,4.45,1.17,4.74,2.38S23.82,15.42,22.3,15.54Z"/><path class="cls-2" d="M24,6.08c-.9-1.09-1.58-.85-2-.52-1.26-1.89-5.25.84-5.25.84a7,7,0,0,1-2.27,4.1s1.07.65,3.52,0C20,10,21.36,7.28,21.87,6.13a4.61,4.61,0,0,1,1.3,1.72c.29.93.42,2.83,1,2.77C24.15,10.62,25.35,7.72,24,6.08Z"/><path class="cls-4" d="M14.89,97.79a6.45,6.45,0,0,1-.31,2.75s-.39,1.78,1.37,1.82,2.18-.14,2-1.23-.58-3-.58-3Z"/><path class="cls-10" d="M18.1,103.23H14.46a9.41,9.41,0,0,1,.12-2.69c2,1.9,3.23,0,3.23,0A10.28,10.28,0,0,1,18.1,103.23Z"/><path class="cls-4" d="M44,101.39a47.83,47.83,0,0,1-4.23-5.49l-2.4,1.23,5.37,5L44,102Z"/><path class="cls-10" d="M46,103.22H41.48a7,7,0,0,1-1.24-2,2.17,2.17,0,0,0-1.46-1v3h-.93L37,100a3,3,0,0,1,.26-2.9c.47,0,1.83.33,4.22,3.08A3.08,3.08,0,0,0,44,101.39l0,0A3.34,3.34,0,0,1,46,103.22Z"/><path class="cls-7" d="M45.74,21.57s-3.83,2.14-5.19,2.75l-2.27,1.05-1.57.74a2,2,0,0,1-2.34-.5c-2.07-2.42-7.44-7.67-13-8.33h0l0,.06c.31.77,3.35,8.36,3.44,10s.4,27.59.4,27.59-.2,1.19,2.08.69a7.5,7.5,0,0,0,2.88-1s-2.18-16-1.59-21.53a12,12,0,0,0-.23-3.58,28.63,28.63,0,0,0,7.35,2.95,33.09,33.09,0,0,0,3.79-2.08,24.14,24.14,0,0,0,3.2-2.57,47.11,47.11,0,0,0,3.63-4.18Z"/><path class="cls-1" d="M36.7,94.21l-2.53.07a49.7,49.7,0,0,1-9.11-16.91l-.24-.74C23,71.4,19.31,64.84,17.35,58.91c-.31-.95-.59-1.84-.84-2.68l-.24-.8,2.09-1.58S24.61,64,26.54,73.5C28.22,81.78,35,91.73,36.7,94.21Z"/><path class="cls-5" d="M18.57,74.39a196.72,196.72,0,0,1-.8,19.69H15.53c-1.23,0-1.85,0-1.85,0-1.51-7.66-2.59-14-3.37-19.47C9.66,70.1,9.09,66.26,8.65,63s-.75-6.13-.86-8.48c0-.37,0-.73,0-1.08s0-.7,0-1L20,51.17C19.81,59.28,18.55,71.7,18.57,74.39Z"/><path class="cls-1" d="M15.53,94.08c-1.23,0-1.85,0-1.85,0-1.51-7.66-2.59-14-3.37-19.47C9.66,70.1,9.09,66.26,8.65,63s-.75-6.13-.86-8.48l4.48,2.63s-2.86,1-1.77,8.65S14,93,15.53,94.08Z"/><path class="cls-7" d="M16.11,54.39s-.86,3.11-3.84,2.71a35.63,35.63,0,0,1-7.21-2.18s1.28-4,2.86-9.3C9.83,39.23,12.2,31,13.32,25.79a33.57,33.57,0,0,0,.61-3.55l2.52-4.79s3.63,8.26,3.83,10.35S16.11,54.39,16.11,54.39Z"/><path class="cls-4" d="M26.74,30.12a2.22,2.22,0,0,0-2.16,2A4.29,4.29,0,0,1,24,33.59c-1.43.08-4.83.26-7.68.44L16,37.78a43,43,0,0,0,8.55-2,2.42,2.42,0,0,0,1-.53,10.78,10.78,0,0,0,3.23-4.91C28.79,29.92,28.18,29.94,26.74,30.12Z"/><path class="cls-10" d="M16,32.16c-.13,3.38-.93,9.93-8,13.43l0,0C9.83,39.23,12.2,31,13.32,25.79,14.62,27.73,16.05,30.31,16,32.16Z"/><path class="cls-7" d="M16.45,17.45s-6.06.43-7.51,3.67-1.92,14-.07,17.2a17,17,0,0,0,7.06-.12l.17,0s1.44-3.52.15-4.22c0,0-3.81.2-3.41-1.06S16.45,17.45,16.45,17.45Z"/><path class="cls-4" d="M49.85,19a3.64,3.64,0,0,0-4.08,2.55l.61,2a2.57,2.57,0,0,0,2.69-1.28c.81-1.16,1-.71,1.55-1.58C51.31,19.58,50.22,19.14,49.85,19Z"/><path class="cls-4" d="M40.55,24.32l-2.27,1.05a11.63,11.63,0,0,1,1.24,5,20.65,20.65,0,0,0,3.29-2.65,42.73,42.73,0,0,0,3.54-4.1l-.61-2S41.91,23.71,40.55,24.32Z"/><path class="cls-4" d="M210.63,47.93a9,9,0,0,1-3.79.15c-1.47-.44-4,.28-4.42.82s-.26.75.47.94,3.31,1.28,5,.65a13.33,13.33,0,0,1,3.9-.66Z"/><path class="cls-3" d="M230.65,27.81S228,46.3,223.74,48a95.35,95.35,0,0,1-14.31,2.85s-.68-.55-.51-2.8c0,0,9.84-3.61,11.24-5.58,2.08-2.92-1.29-11.95,1.32-14.69S228.49,23.81,230.65,27.81Z"/><path class="cls-11" d="M230.31,99.07V95h6.35a.31.31,0,0,0,.31-.31v-.64a.31.31,0,0,0-.31-.31h-6.35v-23a1.17,1.17,0,0,0-1.17-1.17h-1.25a1.17,1.17,0,0,0-1.17,1.17v23h-6.35a.31.31,0,0,0-.31.31v.64a.31.31,0,0,0,.31.31h6.35v4c-4.6.34-8.28,2-9.31,4.13h22.21C238.59,101.07,234.91,99.41,230.31,99.07Z"/><path class="cls-2" d="M229.77,66.77a33.73,33.73,0,0,1-2.54,3.64c-2.8,3.53-5.84,6.44-6.37,9.19a12.87,12.87,0,0,1-.5,1.76q-.33.94-.81,2a59.9,59.9,0,0,1-4.73,8.09c-3.06,4.54-5.94,8.33-5.94,8.33l-5.29-.23c.21-.53,2.52-6.79,5.6-14.45,1.25-3.11,2.58-6.42,3.87-9.61l.51-1.27c.39-1,.78-1.94,1.16-2.87l5.19-12.92s11.57-4.38,12.77-1.54C233.68,59.21,232.88,61.5,229.77,66.77Z"/><path class="cls-2" d="M208.71,98.8s-.27,4.36-1.11,4.42h-4.28l-5.32,0a1.73,1.73,0,0,1,1.59-1.55c1.56-.27,4.16-1.37,5.1-3.42S208.71,98.8,208.71,98.8Z"/><path class="cls-2" d="M220.94,86.35s3.68,2.36,3.32,3.12c0,.11-2.08,3.74-2.08,3.74l-2.62,4.63A1.73,1.73,0,0,1,219,95.7c.52-1.49.84-4.3-.5-6.12S220.94,86.35,220.94,86.35Z"/><path class="cls-3" d="M216,56.33s-14.52,9-16.14,15.12,19.32,19,19.32,19,2.29-2,2.7-3.52c0,0-9.47-11.33-11.52-13.87-1.26-1.56,18.64-5.41,21.07-9.19A9.24,9.24,0,0,0,233,57Z"/><rect class="cls-5" x="212.58" y="67.94" width="31.88" height="8.1" rx="1.08"/><path class="cls-4" d="M222.69,24.64a8.21,8.21,0,0,0-2.22,2c3.48.9,9.25-2.32,9.25-2.32a8.56,8.56,0,0,1-3.07-4.81c0-.17-.08-.34-.11-.52a10.05,10.05,0,0,1-.19-1.81l-1.6,1.44L222.09,21a22.12,22.12,0,0,0,.4,2.68C222.54,24,222.61,24.3,222.69,24.64Z"/><path class="cls-11" d="M233.38,41c-.49,6.71.34,16.89-.22,18.66-.49,1.52-6.23.62-8.45.11-.82-.19-1.81-.46-2.84-.77-2.87-.89-6-2.16-6.32-3.1a.23.23,0,0,1,0-.11.86.86,0,0,1,0-.39,7,7,0,0,0,.6-2.19c0-1.32,0-2.88.09-4.56,0-.19,0-.39,0-.58v-.18c0-1.87.15-3.84.26-5.79.07-1.23.16-2.44.25-3.6a47.58,47.58,0,0,1,1-7.36,11.75,11.75,0,0,1,3.79-5.86l1.06-.91a6.1,6.1,0,0,0,3.84-.51c1.36-.65,1.83-1.11,2.07-.94C231.7,25.4,234,32.85,233.38,41Z"/><path class="cls-3" d="M221.89,59.05c-2.87-.89-6-2.15-6.33-3.09l0-.11c0-.13,0-.27,0-.4a6.77,6.77,0,0,0,.59-2.18c.06-1.33.05-2.89.1-4.57a3.76,3.76,0,0,1,0-.58v-.18L227.08,43A25.27,25.27,0,0,1,221.89,59.05Z"/><path class="cls-8" d="M222.09,21a22.12,22.12,0,0,0,.4,2.68,7,7,0,0,0,4.16-4.17c.11-.28.16-.46.16-.46l-.27-.06-1.79-.37Z"/><path class="cls-4" d="M221,21s5.7.64,6.05-2.91,1.31-5.87-2.31-6.43-4.47.73-4.87,1.88S219.57,20.71,221,21Z"/><path class="cls-11" d="M227.06,18.3a5.86,5.86,0,0,0-5.55-5.21c-3.55-.33-1.57-3.39-1.19-3.88,0,0,2.72.37,5.51.84C231.69,11,227.64,17.57,227.06,18.3Z"/><rect class="cls-12" x="196.84" y="39.24" width="0.52" height="13.74" transform="translate(-4.6 63.15) rotate(-18)"/><rect class="cls-12" x="198.96" y="51.71" width="14.42" height="0.86" transform="translate(-1.07 4.41) rotate(-1.22)"/><path class="cls-4" d="M211.82,50.77a8.85,8.85,0,0,1-3.75.57c-1.51-.28-3.95.72-4.3,1.3s-.17.78.57.88,3.43.91,5,.09a13.34,13.34,0,0,1,3.81-1.08Z"/><path class="cls-11" d="M229.5,28.56s-.55,18.67-4.65,20.79A94.4,94.4,0,0,1,211,53.77s-.74-.47-.82-2.73c0,0,9.39-4.67,10.56-6.78,1.75-3.14-2.6-11.74-.31-14.76S226.92,24.83,229.5,28.56Z"/></g></g></svg>