<svg xmlns="http://www.w3.org/2000/svg" xmlns:xlink="http://www.w3.org/1999/xlink" viewBox="0 0 158.29 193.32"><defs><style>.cls-1{fill:#fee37e;}.cls-2{fill:none;stroke:#53a3e5;stroke-miterlimit:10;stroke-dasharray:1;}.cls-3{clip-path:url(#clip-path);}.cls-4{fill:#fea34e;}</style><clipPath id="clip-path" transform="translate(0 18.4)"><path class="cls-1" d="M33.5,40.82A14.74,14.74,0,0,1,55.17,54.07,14.74,14.74,0,0,1,76.83,67.32,14.74,14.74,0,0,1,98.5,80.58a14.74,14.74,0,0,1,21.66,13.25,14.73,14.73,0,0,1,20.89,8.3c16.5-30.2,2.92-70.35-31.06-90.6C76.51-8.42,35.47-1.77,16.36,26A14.73,14.73,0,0,1,33.5,40.82Z"/></clipPath></defs><title>cai_du</title><g id="Layer_2" data-name="Layer 2"><g id="Dù_chở_brief" data-name="Dù chở brief"><g id="dây_dù" data-name="dây dù"><path class="cls-2" d="M3.06,144.64C-7,87.17,15.9,27.44,16.13,26.84l1.26.07c-.23.59-22.87,59.67-12.9,116.57Z" transform="translate(0 18.4)"/><path class="cls-2" d="M7.05,142c0-.53,1.9-53.07,24.39-99l1.15.33C10.39,88.63,8.53,140.63,8.51,141.15Z" transform="translate(0 18.4)"/><path class="cls-2" d="M11.73,141.45C26.43,103.21,53,56.67,53.22,56.2l1,.54C54,57.21,27.6,103.51,13,141.5Z" transform="translate(0 18.4)"/><path class="cls-2" d="M27.09,173.49l.53-2.1c32.19-3,60.87-21.56,79.26-36.59a234.29,234.29,0,0,0,32.58-32.29l1,1.12a237.41,237.41,0,0,1-33,32.74C88.81,151.63,59.73,170.45,27.09,173.49Z" transform="translate(0 18.4)"/><path class="cls-2" d="M28.05,174.07l-.17-1.91c.52-.32,51.78-32.6,90.1-75.36l.82,1.35C80.17,141.25,28.56,173.74,28.05,174.07Z" transform="translate(0 18.4)"/><path class="cls-2" d="M29,172.23l-.91-1.7c37-32.72,67.12-86.91,67.42-87.45l1.6.82C96.85,84.45,66.48,139.15,29,172.23Z" transform="translate(0 18.4)"/></g><path class="cls-1" d="M33.5,40.82A14.74,14.74,0,0,1,55.17,54.07,14.74,14.74,0,0,1,76.83,67.32,14.74,14.74,0,0,1,98.5,80.58a14.74,14.74,0,0,1,21.66,13.25,14.73,14.73,0,0,1,20.89,8.3c16.5-30.2,2.92-70.35-31.06-90.6C76.51-8.42,35.47-1.77,16.36,26A14.73,14.73,0,0,1,33.5,40.82Z" transform="translate(0 18.4)"/><g class="cls-3"><path class="cls-4" d="M112,8.21s-42-10-81.18,35.85C25.94,49.81,7,25.5,7,25.5L76.27-18.4Z" transform="translate(0 18.4)"/><path class="cls-4" d="M120.46,12.38s24.69,35.41-3.69,88.66c-3.55,6.66,26,15.4,26,15.4l15.52-80.53Z" transform="translate(0 18.4)"/></g></g></g></svg>