<svg xmlns="http://www.w3.org/2000/svg" xmlns:xlink="http://www.w3.org/1999/xlink" viewBox="0 0 113.91 73.52"><defs><style>.cls-1{fill:url(#linear-gradient);}.cls-2{fill:#f13590;}</style><linearGradient id="linear-gradient" x1="-109.84" y1="-16.71" x2="-19.9" y2="-16.71" gradientTransform="translate(111.7 15.26) rotate(-45.34)" gradientUnits="userSpaceOnUse"><stop offset="0" stop-color="#ffae2a"/><stop offset="0.05" stop-color="#ffb334"/><stop offset="0.24" stop-color="#fdc55a"/><stop offset="0.44" stop-color="#fcd378"/><stop offset="0.63" stop-color="#fbdd8d"/><stop offset="0.82" stop-color="#fae39a"/><stop offset="1" stop-color="#fae59e"/></linearGradient></defs><title>Rocket</title><g id="Layer_2" data-name="Layer 2"><g id="Tên_lửa_chở_Brief" data-name="Tên lửa chở Brief"><path class="cls-1" d="M20.29,69.68A74.86,74.86,0,0,0,63.13,71C74.49,68.19,86,62.9,97.74,55.25l.33-.22L88.24,20,88,20a88.58,88.58,0,0,0-33.14-.74C39.28,22,25.36,29.53,13,41.62A117.64,117.64,0,0,0,.66,55.92a3.41,3.41,0,0,0,1,4.9A87.19,87.19,0,0,0,20.29,69.68Z"/><path class="cls-2" d="M63.13,71c19,0,36.5-1.69,50.78-6.71L97.74,55.25C86,62.9,74.49,68.19,63.13,71Z"/><path class="cls-2" d="M54.81,19.25A88.58,88.58,0,0,1,88,20L99.17,0C85.12,3,70.17,10.1,54.81,19.25Z"/><polygon class="cls-2" points="110.65 32.61 94.64 27.98 53.11 45.07 98 44.26 110.65 32.61"/><circle class="cls-2" cx="33.34" cy="50.73" r="11.43" transform="translate(-26.11 38.44) rotate(-45)"/><path class="cls-2" d="M20.29,69.68,13,41.62C12,41.84,8.75,45.48.66,55.92a3.39,3.39,0,0,0,1,4.9A87.19,87.19,0,0,0,20.29,69.68Z"/></g></g></svg>