<svg width="6" height="11" viewBox="0 0 6 11" fill="none" xmlns="http://www.w3.org/2000/svg">
<path d="M4.99982 10.634C4.86821 10.6347 4.73775 10.6095 4.61591 10.5597C4.49407 10.51 4.38326 10.4366 4.28982 10.344L0.289816 6.34397C0.103565 6.15661 -0.000976562 5.90315 -0.000976562 5.63897C-0.000976562 5.37478 0.103565 5.12133 0.289816 4.93397L4.28982 0.933969C4.48112 0.770143 4.72719 0.684537 4.97887 0.694258C5.23055 0.703979 5.46928 0.808311 5.64738 0.986405C5.82547 1.1645 5.92981 1.40324 5.93953 1.65492C5.94925 1.90659 5.86364 2.15267 5.69982 2.34397L2.40982 5.63397L5.69982 8.92397C5.84024 9.06324 5.93621 9.24102 5.97559 9.43484C6.01498 9.62865 5.99601 9.82979 5.92108 10.0128C5.84616 10.1959 5.71864 10.3526 5.55466 10.4631C5.39067 10.5737 5.19759 10.6331 4.99982 10.634Z" fill="#B8CAE6"/>
</svg>
