<svg id="Layer_1" data-name="Layer 1" xmlns="http://www.w3.org/2000/svg" viewBox="0 0 40.68 23.34"><defs><style>.cls-1{fill:#b8cae6;}</style></defs><title>Switch_ngược</title><path class="cls-1" d="M11,23.33A11.67,11.67,0,1,1,11.67,0H29a11.67,11.67,0,1,1-.68,23.33H11.67C11.44,23.34,11.21,23.34,11,23.33Zm.68-20a5.61,5.61,0,0,0-.58,0A8.34,8.34,0,0,0,11.67,20H28.33a5.61,5.61,0,0,0,.58,0,8.34,8.34,0,0,0-.58-16.67Z" transform="translate(0.34 0.01)"/><path class="cls-1" d="M18,11.67a6,6,0,1,0-6,6A6,6,0,0,0,18,11.67Z" transform="translate(0.34 0.01)"/></svg>