<svg width="24" height="25" viewBox="0 0 24 25" fill="none" xmlns="http://www.w3.org/2000/svg">
<g id="sworld-location">
<path id="Vector" d="M12 2.13507C9.87827 2.13507 7.84344 2.97793 6.34315 4.47822C4.84285 5.97851 4 8.01334 4 10.1351C4 15.5351 11.05 21.6351 11.35 21.8951C11.5311 22.05 11.7616 22.1351 12 22.1351C12.2384 22.1351 12.4689 22.05 12.65 21.8951C13 21.6351 20 15.5351 20 10.1351C20 8.01334 19.1571 5.97851 17.6569 4.47822C16.1566 2.97793 14.1217 2.13507 12 2.13507ZM12 19.7851C9.87 17.7851 6 13.4751 6 10.1351C6 8.54377 6.63214 7.01765 7.75736 5.89243C8.88258 4.76721 10.4087 4.13507 12 4.13507C13.5913 4.13507 15.1174 4.76721 16.2426 5.89243C17.3679 7.01765 18 8.54377 18 10.1351C18 13.4751 14.13 17.7951 12 19.7851ZM12 6.13507C11.2089 6.13507 10.4355 6.36967 9.77772 6.80919C9.11992 7.24872 8.60723 7.87343 8.30448 8.60434C8.00173 9.33524 7.92252 10.1395 8.07686 10.9154C8.2312 11.6914 8.61216 12.4041 9.17157 12.9635C9.73098 13.5229 10.4437 13.9039 11.2196 14.0582C11.9956 14.2126 12.7998 14.1333 13.5307 13.8306C14.2616 13.5278 14.8864 13.0151 15.3259 12.3574C15.7654 11.6996 16 10.9262 16 10.1351C16 9.0742 15.5786 8.05679 14.8284 7.30664C14.0783 6.5565 13.0609 6.13507 12 6.13507ZM12 12.1351C11.6044 12.1351 11.2178 12.0178 10.8889 11.798C10.56 11.5782 10.3036 11.2659 10.1522 10.9004C10.0009 10.535 9.96126 10.1329 10.0384 9.74489C10.1156 9.35693 10.3061 9.00056 10.5858 8.72086C10.8655 8.44115 11.2219 8.25067 11.6098 8.1735C11.9978 8.09633 12.3999 8.13594 12.7654 8.28731C13.1308 8.43869 13.4432 8.69503 13.6629 9.02393C13.8827 9.35283 14 9.73951 14 10.1351C14 10.6655 13.7893 11.1742 13.4142 11.5493C13.0391 11.9244 12.5304 12.1351 12 12.1351Z" fill="#B8CAE6"/>
</g>
</svg>
