<svg width="24" height="25" viewBox="0 0 24 25" fill="none" xmlns="http://www.w3.org/2000/svg">
<g id="sworld-email">
<path id="Vector" d="M19 4.63507H5C4.20435 4.63507 3.44129 4.95114 2.87868 5.51375C2.31607 6.07636 2 6.83942 2 7.63507V17.6351C2 18.4307 2.31607 19.1938 2.87868 19.7564C3.44129 20.319 4.20435 20.6351 5 20.6351H19C19.7956 20.6351 20.5587 20.319 21.1213 19.7564C21.6839 19.1938 22 18.4307 22 17.6351V7.63507C22 6.83942 21.6839 6.07636 21.1213 5.51375C20.5587 4.95114 19.7956 4.63507 19 4.63507ZM18.59 6.63507L12.71 12.5151C12.617 12.6088 12.5064 12.6832 12.3846 12.734C12.2627 12.7847 12.132 12.8109 12 12.8109C11.868 12.8109 11.7373 12.7847 11.6154 12.734C11.4936 12.6832 11.383 12.6088 11.29 12.5151L5.41 6.63507H18.59ZM20 17.6351C20 17.9003 19.8946 18.1546 19.7071 18.3422C19.5196 18.5297 19.2652 18.6351 19 18.6351H5C4.73478 18.6351 4.48043 18.5297 4.29289 18.3422C4.10536 18.1546 4 17.9003 4 17.6351V8.04507L9.88 13.9251C10.4425 14.4869 11.205 14.8024 12 14.8024C12.795 14.8024 13.5575 14.4869 14.12 13.9251L20 8.04507V17.6351Z" fill="#B8CAE6"/>
</g>
</svg>
