<svg xmlns="http://www.w3.org/2000/svg" viewBox="0 0 161.96 189.82"><defs><style>.cls-1{fill:#e6a34b;}.cls-2{fill:#393973;}.cls-3{fill:#474056;}.cls-4{fill:#1d2630;}.cls-5{fill:#2e2c46;}.cls-6{fill:#fcb79f;}.cls-7{fill:#ea8f7d;}.cls-8{fill:#022a44;}.cls-9{fill:#847057;}.cls-10{fill:#283474;}.cls-11{fill:#4e93b3;}.cls-12{fill:#337d96;}.cls-13{fill:#85c3d0;}.cls-14{fill:#d88568;}.cls-15{fill:#de32a8;}.cls-16{fill:#fff;}.cls-17{fill:#ba782a;}</style></defs><title>Editor</title><g id="Layer_2" data-name="Layer 2"><g id="Hành_tinh_editor" data-name="Hành tinh editor"><path class="cls-1" d="M69.09,158.22a14.43,14.43,0,0,1,1.15-8.45,24.26,24.26,0,0,1-9.15-1.25,81.57,81.57,0,0,1-1.47,8.78A14,14,0,0,0,69.09,158.22Z"/><path class="cls-2" d="M69.18,155.8a1.85,1.85,0,0,0-2.51-.46c-.75.46-1.22,1.26-1.93,1.77a4.08,4.08,0,0,1-5.07-.8,4,4,0,0,0-1.38-1.2,1.39,1.39,0,0,0-1.36.32,5.6,5.6,0,0,0-.87,1.12,6.13,6.13,0,0,1-3.4,2.31,7.55,7.55,0,0,0-2.91,1.54c-.84.91-.77,2.45-.4,3.81l1.91,0,19.56-.8a11.65,11.65,0,0,0-.71-5.73C69.92,157.22,69.64,156.09,69.18,155.8Z"/><path class="cls-3" d="M52.69,159a1,1,0,0,1,.53-.74,5.12,5.12,0,0,1,.85-.41,13.06,13.06,0,0,0,2.4-2.19,3.39,3.39,0,0,1,2.29-.91,1.29,1.29,0,0,1,.86.2.63.63,0,0,1,.17.8,1.14,1.14,0,0,1-.61.33,11.65,11.65,0,0,0-3.09,1.9A4.49,4.49,0,0,1,52.69,159Z"/><path class="cls-4" d="M70.91,161.78a9.37,9.37,0,0,1-.09,1.68l-19.56.8-1.91,0a7.24,7.24,0,0,1-.26-1.58Z"/><path class="cls-3" d="M95.42,90.55A77.13,77.13,0,0,0,65.66,100.8c-1.74,1-3.5,2.23-4.36,4.17a13.74,13.74,0,0,0-.77,5q-.7,21.57-1.4,43.12c4.07.5,4.44,1.28,8.4,1.08,1-.05,3.8-.34,4.48-1.05.86-.89.71-2.71.67-4.11a50.58,50.58,0,0,1,1.53-13,84.43,84.43,0,0,0,1.76-9.2c.34-3.3,0-7-1.33-12.67,5.17-2.93,13.58-1.73,19.84-1.8s13-1.21,16.17-6.4c2.45-4,2.27-9.53,2-14.74L91.63,87c-.1,1.09-.21,2.19-.32,3.28Z"/><path class="cls-5" d="M62,153.48A220.45,220.45,0,0,0,63.36,115l-.29,0a220.75,220.75,0,0,1-1.37,38.38Z"/><path class="cls-5" d="M60.29,117.39l.24-7.4a13.74,13.74,0,0,1,.77-5c.86-1.94,2.62-3.13,4.36-4.17A77.13,77.13,0,0,1,95.42,90.55l-4.11-.23c.11-1.09.22-2.19.32-3.28l21,4.21c.25,5.21.43,10.74-2,14.74-3.19,5.19-9.91,6.34-16.17,6.4s-14.67-1.13-19.84,1.8c1.33,5.68,1.67,9.37,1.33,12.67a84.43,84.43,0,0,1-1.76,9.2,50.58,50.58,0,0,0-1.53,13c0,1.4.19,3.22-.67,4.11a4.37,4.37,0,0,1-2.07.76C71.83,137.58,77.53,119.08,60.29,117.39Z"/><path class="cls-1" d="M23.35,164.78a18.19,18.19,0,0,1,2.77-9.62A25.57,25.57,0,0,1,16,153.73a51.3,51.3,0,0,1-3.19,10A14.91,14.91,0,0,0,23.35,164.78Z"/><path class="cls-2" d="M25.05,162c-.47-1-1.93-1-2.89-.52s-1.66,1.44-2.59,2a4.68,4.68,0,0,1-5.87-.9c-.43-.51-.79-1.15-1.43-1.37a1.87,1.87,0,0,0-1.66.37,9.38,9.38,0,0,0-1.24,1.28,10.37,10.37,0,0,1-4.68,3,8.84,8.84,0,0,0-3.47,1.39,5,5,0,0,0-1.15,4.34l2.25,0,23.32-.95a12.58,12.58,0,0,0,.18-6.53C25.68,163.6,25.55,162.31,25.05,162Z"/><path class="cls-3" d="M5.18,165.64a1.74,1.74,0,0,1,.67-1,8.46,8.46,0,0,1,1-.46,11.09,11.09,0,0,0,2.52-2,5,5,0,0,1,2.81-1.5,1.35,1.35,0,0,1,1,.23.7.7,0,0,1,.2.9,1.2,1.2,0,0,1-.69.37A13.9,13.9,0,0,0,9.1,164.3C8,165.09,6.53,165.94,5.18,165.64Z"/><path class="cls-4" d="M26,168.8a11.17,11.17,0,0,1-.4,1.91l-23.32.95-2.25,0a7.15,7.15,0,0,1,0-1.79Z"/><path class="cls-3" d="M63.61,87.08c-13.46,1.63-20.69,5.15-32.8,11.26-2.35,1.19-4.77,2.54-6.22,4.75a16.1,16.1,0,0,0-2,5.68L12,157.62c4.9.54,5.2,1.43,10.12,1.19,1.28-.07,4.74-.4,5.73-1.21,1.24-1,1.43-3.07,1.67-4.65.84-5.57,2.43-9.49,4.55-14.71a104,104,0,0,0,4.06-10.42c1.1-3.73,1.44-7.92,1-14.34,7-3.34,17.07-2,24.79-2.11s16.23-1.42,21.22-7.32c3.84-4.53,4.76-10.79,5.51-16.69l-25-4.7c-.36,1.24-.71,2.48-1.07,3.72Z"/><path class="cls-5" d="M32.52,109c17.19-5.22,40.24-6.39,50.92-23l7.19,1.36c-.75,5.9-1.67,12.16-5.51,16.69-5,5.9-13.5,7.22-21.22,7.32s-17.82-1.23-24.79,2.11c.47,6.42.13,10.61-1,14.34a104,104,0,0,1-4.06,10.42c-2.12,5.22-3.71,9.14-4.55,14.71-.24,1.58-.43,3.64-1.67,4.65-.77.63-3,1-4.58,1.12,1.12-10.19,6.93-20.21,9.19-30.44C33.82,121.79,36,115.28,32.52,109Z"/><path class="cls-5" d="M21,158.65a98.41,98.41,0,0,1,6.94-28.57l.48-1.18a38.82,38.82,0,0,0,2.18-6.19,12.21,12.21,0,0,0-.68-8.28,2.18,2.18,0,0,1-.25-1.38c.06-.31.16-.32.23-.33a.76.76,0,0,0,.59-.48.86.86,0,0,0-.11-.86l-.81-1.09a.35.35,0,0,1,0-.38.32.32,0,0,1,.32-.15,2.45,2.45,0,0,1,.66.26,1.24,1.24,0,0,0,.2.1.51.51,0,0,0,.6-.12.48.48,0,0,0,.05-.6,1.82,1.82,0,0,1,.13-2,5,5,0,0,1,3.08-1.22,106,106,0,0,0,30.66-9.51l-.14-.29a106.17,106.17,0,0,1-30.56,9.48,5.17,5.17,0,0,0-3.29,1.33,2.16,2.16,0,0,0-.15,2.41.16.16,0,0,1,0,.2.19.19,0,0,1-.22,0l-.19-.1a2.72,2.72,0,0,0-.75-.29.64.64,0,0,0-.66.3.66.66,0,0,0,0,.75l.81,1.09a.55.55,0,0,1,.07.54.44.44,0,0,1-.34.27.64.64,0,0,0-.5.59,2.36,2.36,0,0,0,.28,1.6,11.83,11.83,0,0,1,.65,8,38.64,38.64,0,0,1-2.16,6.15c-.16.39-.33.78-.49,1.18a99,99,0,0,0-7,28.66Z"/><path class="cls-6" d="M96.7,34.05c4.76-1.41,10-2,14.93-2.7A29.87,29.87,0,0,1,107.14,18a47.53,47.53,0,0,1-10.53.12Z"/><path class="cls-6" d="M87.82,9a9.58,9.58,0,0,0,.49,5A6.41,6.41,0,0,1,89,15.45a7,7,0,0,1-.2,2.13,8.79,8.79,0,0,0,1,4.34L92,27.07a3,3,0,0,0,.85,1.29,2.85,2.85,0,0,0,2.21.2c1.61-.31,3.21-.69,4.79-1.14,2.12-.6,4.36-1.43,5.63-3.24a9,9,0,0,0,1.18-5.88A26.26,26.26,0,0,0,105.1,11a13.91,13.91,0,0,0-1.88-3.68A7.25,7.25,0,0,0,100,4.83a10.79,10.79,0,0,0-5.67,0,13.13,13.13,0,0,0-3.16.89,4.88,4.88,0,0,0-2.4,2.17Z"/><path class="cls-7" d="M98.25,18.19a48,48,0,0,0,8.89-.24,29.87,29.87,0,0,0,4.49,13.4c-2.56.38-5.22.72-7.86,1.16C102.45,27.62,98.28,23.3,98.25,18.19Z"/><path class="cls-8" d="M83.08,5a3.68,3.68,0,0,0,2.11,1.53,3.92,3.92,0,0,1-1.5-4.48A2.28,2.28,0,0,0,86,3.87a1.35,1.35,0,0,1-1-1.61,2.67,2.67,0,0,0,2.37.81l2.42-.17A3.58,3.58,0,0,1,88.66,0a5.13,5.13,0,0,0,3.8,2.54l.12,0,.35-.09A2.58,2.58,0,0,1,92.16.78a3.4,3.4,0,0,0,2.34.83A1.91,1.91,0,0,1,93.71.48a8.23,8.23,0,0,0,3,.86A21.22,21.22,0,0,1,102.6,1a6,6,0,0,1,3.34.7,6,6,0,0,1,1.59,1.82,23.26,23.26,0,0,1,3,7.53c.31,1.52-.34,3.37-.65,4.88-.71,3.42-1.49,5.79-2.12,9.23-3.29-2.71-8.48-2.39-11.34-4.79-2-1.67-3-4.18-3.76-6.8a3.43,3.43,0,0,0-2.79-2.38,4.46,4.46,0,0,1-2.65-1.39l0,0A7.09,7.09,0,0,1,83.08,5Z"/><path class="cls-9" d="M103.44,3.94l1.45,2.33a5.16,5.16,0,0,1-1.67-1.41.69.69,0,0,1-.14-.3.27.27,0,0,1,.12-.29C103.29,4.22,103.38,3.84,103.44,3.94Z"/><path class="cls-9" d="M101.78,4.27l1,1.93a10,10,0,0,0-2-1.08.78.78,0,0,1-.86.82,6,6,0,0,1-.66-.26c-.23-.06-.53,0-.59.24s0,.25,0,.38c0,.3-.37.47-.67.44a5.35,5.35,0,0,1-.86-.27.77.77,0,0,0-.82.18,1,1,0,0,0-.11.57c0,.36,0,.72,0,1.08s0,.5-.21.62a.63.63,0,0,1-.59-.06,19.77,19.77,0,0,1-4-2.74,5.09,5.09,0,0,1,.91,2.17,9.7,9.7,0,0,1-3.52-2.9A5.08,5.08,0,0,0,91,5.94c-.23-.24,0-.68.34-.76a1.5,1.5,0,0,1,1,.23L94.7,6.6c.16-.31-.24-.72-.08-1s.47-.25.73-.15a1.72,1.72,0,0,0,.78.21,1.72,1.72,0,0,0,.69-.42c.22-.16.58-.23.74,0A1.29,1.29,0,0,1,99,5c0-.26.27-.45.53-.46s.52.1.78.12a.56.56,0,0,0,.62-.37Z"/><path class="cls-9" d="M88.32,7.23a3.55,3.55,0,0,1-2.64-2.4A23.06,23.06,0,0,1,88.32,7.23Z"/><path class="cls-6" d="M92.8,16.85c.64,0,1-.73,1.12-1.37a2.61,2.61,0,0,1,.65-1.76,1.42,1.42,0,0,1,1.8.25,3.75,3.75,0,0,1,.87,1.76,7.57,7.57,0,0,1,.13,4.79,3,3,0,0,1-1,1.34,1.81,1.81,0,0,1-1.6.29Z"/><path class="cls-7" d="M94.27,17.7a.78.78,0,0,1,0-.5l.15-1.41c0-.46.16-1,.6-1.17a.81.81,0,0,1,1,.64,1.78,1.78,0,0,1-.28,1.26c-.09.15-.18.36-.06.49s.24.08.38.1a.78.78,0,0,1,.54.49,2.32,2.32,0,0,1,.14.75,5.18,5.18,0,0,1-.06,1.36,1.69,1.69,0,0,1-.76,1.09c0-.36,0-.79-.36-.95s-.72,0-.91-.26.42-1,.19-1.42C94.67,18,94.39,17.9,94.27,17.7Z"/><path class="cls-10" d="M96.94,26.88a19.77,19.77,0,0,0-2.83,1.53,10.57,10.57,0,0,0,2.44-.29.68.68,0,0,0,.45-.25C97.18,27.58,96.89,27.22,96.94,26.88Z"/><path class="cls-9" d="M115.24,33.84a130.94,130.94,0,0,0-21.47,1.85c-.38-1.39-.71-.8-1.09-2.19,6.76-4.95,13.6-7.76,21.84-2.72C114.37,33.05,114.82,31.59,115.24,33.84Z"/><path class="cls-3" d="M112.7,32.09a78.39,78.39,0,0,1-17.42,1.68,37.42,37.42,0,0,1,8.6-3A12.59,12.59,0,0,1,112.7,32.09Z"/><path class="cls-11" d="M64.68,82.07c.75-.89,1.64-1.7,2.46-2.51A32.35,32.35,0,0,0,75,66.85c1.54-4.66,2-9.6,3-14.41s2.62-9.7,6-13.23a21.76,21.76,0,0,1,10.53-5.65,65.14,65.14,0,0,1,12-1.44c2.67-.15,5.42-.29,8,.58a18.78,18.78,0,0,1,5,2.39c2.1,1.48,2,3,3.28,5.26,2,3.56,1.28,13.84.25,17.8-3,11.74-5.86,17.44-11,28.43a50.6,50.6,0,0,1-3.3,6.27l-2,6a7.53,7.53,0,0,1-.87,1.94,7.81,7.81,0,0,1-3.89,2.47c-4.6,1.74-9.26,3.49-14.13,4.22s-10,.36-14.39-2A23.41,23.41,0,0,1,65,97.28a71.62,71.62,0,0,1-5.27-10.73Z"/><path class="cls-3" d="M62.3,94.44A50.76,50.76,0,0,0,77.05,76.75,110.29,110.29,0,0,0,85.2,55.06L84.89,55a109.8,109.8,0,0,1-8.13,21.62A50.66,50.66,0,0,1,62.11,94.18Z"/><path class="cls-12" d="M105.07,44.58c-3.8.2-7.85.75-10.75,3.22-3.48,3-4.44,7.82-5.39,12.28A168.11,168.11,0,0,1,74.07,102a3,3,0,0,0-.48,2,2.75,2.75,0,0,0,1.48,1.52c7.18,4,16.39,3.49,23.7-.31s12.82-10.48,16.44-17.88,5.5-15.54,6.92-23.67c.65-3.74,1.21-7.5,1.74-11.26.27-1.89.47-4-.67-5.52s-3.33-1.93-5.28-2.1A90.37,90.37,0,0,0,105.07,44.58Z"/><path class="cls-13" d="M60.87,89.24c-.39-.9-.77-1.79-1.15-2.69l5-4.48c.75-.89,1.64-1.7,2.46-2.51A32.35,32.35,0,0,0,75,66.85c1.54-4.66,2-9.6,3-14.41s2.62-9.7,6-13.23a16.65,16.65,0,0,1,2.25-2C76.19,53.83,78.47,79.39,60.87,89.24Z"/><path class="cls-6" d="M75.17,46.64C71.11,50.77,65,65.49,59.33,67c-1.84.46-3.19,1.39-5.09,1.57-8.36.79-7.21,1.21-15.58,2q-.27,3.32-.55,6.63c13.49.26,13.57,2.79,27.05,3,5.29-4.91,17.41-18.11,22-27.06Z"/><path class="cls-6" d="M21.39,77.42a3.19,3.19,0,0,0,3.14,0,10.35,10.35,0,0,1,3.07-1.17c1.43-.13,2.75.67,4.09,1.18a8.88,8.88,0,0,0,7.11-.22,6.84,6.84,0,0,0,3.79-5.84c-3.06,0-5.83-2.36-8.88-2a10.83,10.83,0,0,0-2.42.65,15,15,0,0,0-4.18,2C25,73.56,23.76,76.23,21.39,77.42Z"/><path class="cls-14" d="M81.11,49.93l7,3.42c-4.59,8.95-15.39,22.37-23,26.85-13.48-.26-13.56-2.79-27-3v0c.19-2.29,3.47-2.86,5.74-2.47C71.51,79.41,69.36,63.21,81.11,49.93Z"/><path class="cls-12" d="M89.67,54a32.8,32.8,0,0,0,4.68-6.63A9.38,9.38,0,0,0,95.28,40c-.81-2.4-2.14-4.42-4.65-4.1l-.81-.31c-5.06.47-6.12,1.6-8.7,3.29-3.41,2.24-5.2,5.29-8,8.55A9.1,9.1,0,0,0,72,49.08a101.29,101.29,0,0,1,13,10C86.6,57.31,88.14,55.58,89.67,54Z"/><path class="cls-8" d="M55.33,177.79a5.4,5.4,0,1,0,5.39,5.37A5.37,5.37,0,0,0,55.33,177.79Z"/><path class="cls-8" d="M153.22,177.38a5.4,5.4,0,1,0,5.39,5.36A5.38,5.38,0,0,0,153.22,177.38Z"/><path class="cls-15" d="M153.23,179.82a3,3,0,1,0,3,2.94A2.94,2.94,0,0,0,153.23,179.82Z"/><path class="cls-15" d="M53.94,180.41c-1,0-1.73,1.33-1.72,3s.79,2.95,1.75,2.94,1.74-1.33,1.73-3S54.9,180.4,53.94,180.41Z"/><path class="cls-8" d="M152.8,174.69c-6.32-.48-24.92-1.92-32.07-2.73-8.68-1-12.28-5.58-12.28-5.58h-1.13l-.17-29.85H106l-.1-17.16-4.27,0,.1,17.17h-1.13l.18,29.85H99.66s-3.54,4.65-12.21,5.73c-7.15.89-25.72,2.54-32,3.1a2.33,2.33,0,0,0-2.12,2.35v1.26L97.84,175a27.88,27.88,0,0,1-2.55,2,8.07,8.07,0,0,0-2,1.71,4.23,4.23,0,0,0-.58,1.14H90.07l.06,10,8.82,0-.06-10-2.77,0c0-.26,0-.53.09-.79a18.47,18.47,0,0,0,9.38-4.43L155,178.27V177A2.34,2.34,0,0,0,152.8,174.69Z"/><polygon class="cls-15" points="107.28 159.09 107.15 136.54 106.01 136.55 105.91 119.39 101.64 119.41 101.74 136.58 100.61 136.58 100.74 159.13 107.28 159.09"/><path class="cls-8" d="M47,131.9a4.21,4.21,0,0,1,1.43-4.25,11.25,11.25,0,0,1,4.24-2.1c14.28-4.51,17.68-.17,32.5,2.06s41.31,2.29,56,5.08c2.86.55,5.82,1.08,8.3,2.61s4.41,4.35,4,7.22c-.39,2.55-2.56,4.55-5,5.49a22.67,22.67,0,0,1-7.66,1.09l-26.8.7c-9.36.24-18.76.48-28-.74-13.74-1.81-26.84-6.76-39.79-11.67a8.19,8.19,0,0,1-2.95-1.63,2.75,2.75,0,0,1-.71-3.08Z"/><path class="cls-16" d="M142.08,30a12.83,12.83,0,0,0-10.44,3.89A20.93,20.93,0,0,0,126.39,44c-.87,3.64-1.14,7.57-3.21,10.69-2.75,4.15-7.92,5.83-12.64,7.43s-9.83,3.84-11.82,8.39c-1.77,4-.49,8.81,1.76,12.59s5.42,7,7.83,10.66c6.52-7.09,18.94-6.41,25-13.92,2.43-3,3.41-7,3.71-10.85s0-7.75.16-11.63a46.5,46.5,0,0,1,9-25.3Z"/><path class="cls-15" d="M142.73,30.65a12.82,12.82,0,0,0-10.43,3.89A21,21,0,0,0,127,44.6c-.87,3.64-1.14,7.57-3.21,10.69-2.75,4.14-7.91,5.82-12.63,7.43s-9.83,3.84-11.83,8.39c-1.76,4-.49,8.8,1.77,12.59s5.41,7,7.82,10.66c6.53-7.09,18.94-6.41,25-13.93,2.43-3,3.41-7,3.7-10.84s0-7.76.17-11.63a46.42,46.42,0,0,1,9-25.3Z"/><path class="cls-8" d="M113.56,75.84C102.06,96,95.22,119.56,82.09,138.3c-1.62,2.32-3.45,5-3,7.94.55,3.36,3.79,5,6.66,5.88,8.58,2.45,17.56,2,26.38,1.54q15.47-.89,30.92-2.11c2.6-.21,5.38-.49,7.44-2.35s3-4.76,3.72-7.58c6.59-24.29,7.18-50.14,7.71-75.61,0-1.63,0-3.46-1-4.65S158.45,60,157,60q-10-.3-20.1.37c-4.42.3-9,.77-12.9,3.13C119.55,66.15,116.34,71,113.56,75.84Z"/><path class="cls-8" d="M131.39,77a73.61,73.61,0,0,0,21.87-2.15,8,8,0,0,0,4.49-2.33,8.59,8.59,0,0,0,1.42-4.18,160.48,160.48,0,0,0,1.39-33.93c-.14-2-.38-4.17-1.74-5.6-1.51-1.59-3.89-1.77-6-1.85a37,37,0,0,0-9.4.44,12.71,12.71,0,0,0-7.87,4.92c-1.86,2.75-2.21,6.25-2.66,9.57a105.37,105.37,0,0,1-7.09,26.25c-.76,1.82-1.58,3.88-.85,5.71C125.87,76.3,128.87,76.91,131.39,77Z"/><path class="cls-8" d="M131.71,62.4a104.56,104.56,0,0,0-20.9,4.65c-5.19,1.72-10.92,4.63-12,10-.84,4,1.33,8,3.08,11.75a67.75,67.75,0,0,1,6,36.14l21.44-38.6Z"/><path class="cls-15" d="M98.82,151.51l.36-.43c9.12-11,13.71-32.51,13.75-32.73l0-.14,4.94-1.5,7.39-17.84-6.43-4.37.09-.19c5-10.65,11.79-30.9,11.86-31.11l.46.16c-.06.2-6.75,20.25-11.79,31l6.41,4.36-.08.18-7.55,18.24-4.88,1.48c-.41,1.88-4.9,21.64-13.48,32.37l40.89-2.11,0,.49Z"/><rect class="cls-15" x="147.46" y="147.66" width="2.79" height="0.49" transform="matrix(0.81, -0.58, 0.58, 0.81, -58.3, 114.46)"/><path class="cls-15" d="M132.08,62.66l-.45-.19c.85-2.09,3.59-2.41,5.57-2.47l17.12-.5c1.88-.06,4,0,5.22,1.47l-.38.32c-1.08-1.3-3.06-1.36-4.82-1.3l-17.12.5C135.37,60.54,132.83,60.83,132.08,62.66Z"/><path class="cls-1" d="M101.38,115.23a228.75,228.75,0,0,0-14.75,23c-.93,1.64-1.85,3.59-1.14,5.33.61,1.52,2.25,2.33,3.75,3,2.61,1.16,5.71,2.31,8.19.89a8.59,8.59,0,0,0,3.13-4,75.85,75.85,0,0,0,7.33-33.84,9.4,9.4,0,0,0-3.52,2.3Z"/><path class="cls-17" d="M104.37,111.85l-.84,1c-2.3,8.84-5.22,21.79-10.48,31.13-.88,1.78-1.78,2.53-3.83,2.59h0c2.61,1.16,5.71,2.31,8.19.89a8.59,8.59,0,0,0,3.13-4,75.85,75.85,0,0,0,7.33-33.84A9.4,9.4,0,0,0,104.37,111.85Z"/><path class="cls-8" d="M92.45,147.71l-.32-.36a18,18,0,0,0,4.25-6.73,99.8,99.8,0,0,0,3.55-11c1.72-6.17,3.41-12.43,5-18.59l.48.12c-1.61,6.17-3.3,12.43-5,18.6a99.45,99.45,0,0,1-3.57,11A18.55,18.55,0,0,1,92.45,147.71Z"/><path class="cls-1" d="M121.09,66.37a44.66,44.66,0,0,0-6.77,2.22c-1.87.79-3.81,1.82-4.72,3.62-1,2-.5,4.51.33,6.64s2,4.23,2.06,6.51a14.44,14.44,0,0,0,.1,2.55,2.15,2.15,0,0,0,1.62,1.76c1.15.15,2-1,2.57-2,3.22-5.57,6.46-11.2,8.28-17.36.37-1.27.59-2.87-.44-3.71A3.51,3.51,0,0,0,121.09,66.37Z"/><path class="cls-17" d="M124.12,66.61a3.51,3.51,0,0,0-3-.24c-.54.13-1.09.27-1.63.43,3.45.79-6.22,19.26-7.35,21.06,0,0,0,0,0,0v0a2.15,2.15,0,0,0,1.62,1.76c1.15.15,2-1,2.57-2,3.22-5.57,6.46-11.2,8.28-17.36C124.93,69.05,125.15,67.45,124.12,66.61Z"/><path class="cls-8" d="M112.32,89.2l-.31-.38c1.72-1.41,2.66-3.58,3.5-5.49,1.65-3.79,3.37-7.71,4.93-11.62.67-1.69,1.32-3.63.5-5.22l.43-.23c.88,1.69.29,3.7-.48,5.63-1.56,3.92-3.28,7.84-4.94,11.64C115.1,85.49,114.13,87.71,112.32,89.2Z"/><path class="cls-15" d="M148.31,32.75c2.33,0,5.48,0,7.46.07a3.08,3.08,0,0,1,2.7,1.67l1.08,2.11a3.07,3.07,0,0,1,.19,2.3l-5.9,18.65-4.91.64L144.77,40.3a3.62,3.62,0,0,1-.07-1.09l.36-3.54A3.24,3.24,0,0,1,148.31,32.75Z"/><path class="cls-8" d="M150.16,58.45l-3-13.8a24.92,24.92,0,0,1-.82-6.22,12.46,12.46,0,0,1,1.94-6.18l.41.26a11.94,11.94,0,0,0-1.86,5.94,24.08,24.08,0,0,0,.81,6.09l3,13.81Z"/><path class="cls-1" d="M48.74,131.47a11.85,11.85,0,0,0-4.59-.19,4,4,0,0,0-3.2,2.93,4,4,0,0,0,1.62,3.59,11.56,11.56,0,0,0,3.72,1.75l27.84,9.34a3.82,3.82,0,0,0,5-3.28c.09-1,.21-2.08.31-3.13a17.25,17.25,0,0,0-.72-8c-1-2.5-3.31-4.66-6-4.77s-5.43,2.44-4.86,5.08Z"/><path class="cls-16" d="M69,139.33l-24.19-6a6.36,6.36,0,0,0-2.11-.28,2,2,0,0,0-1.6,1l-.44-.2a2.39,2.39,0,0,1,2-1.27,6.36,6.36,0,0,1,2.28.29l24.19,6Z"/><path class="cls-16" d="M75.63,148.93l-.32-.38a3.92,3.92,0,0,0,.94-2.87c.1-1.88.18-3.78.23-5.65a15.64,15.64,0,0,0-.37-4.81,5.44,5.44,0,0,0-2.83-3.59,3.3,3.3,0,0,0-4.08,1l-.42-.25a3.8,3.8,0,0,1,4.69-1.24,5.91,5.91,0,0,1,3.11,3.9,16.06,16.06,0,0,1,.39,5c0,1.88-.13,3.79-.23,5.67A4.36,4.36,0,0,1,75.63,148.93Z"/></g></g></svg>